<svg width="658" height="228" viewBox="0 0 658 228" fill="none" xmlns="http://www.w3.org/2000/svg">
<path d="M103.6 150.4C105.9 150.2 107.4 149.8 108.2 148.9C109 148.1 109.4 146.4 109.4 144V113C109.4 110.4 109 108.7 108.2 108C107.4 107.3 105.9 106.8 103.6 106.6V104.8H126.1C132.1 104.8 136.6 105.8 139.7 107.7C142.8 109.6 144.4 113 144.4 117.7C144.4 120 143.8 122.2 142.6 124.2C141.4 126.2 139.4 127.8 136.6 129.1C134.5 130 132.4 130.5 130.2 130.7C128.1 130.9 124.9 131 120.8 131V144C120.8 146.6 121.2 148.3 122.1 149.1C123 149.9 124.6 150.3 127 150.4V152.2H103.7V150.4H103.6ZM129.1 127.1C131.3 125.7 132.4 122.6 132.4 118C132.4 114.8 131.9 112.2 130.8 110.3C129.7 108.3 127.7 107.4 124.6 107.4C123.2 107.4 122.2 107.6 121.6 107.9C121 108.2 120.7 108.9 120.7 109.8V128.6C124.9 128.5 127.7 128 129.1 127.1Z" fill="#B11F24"/>
<path d="M146.4 150.4C148.8 150.3 150.4 149.8 151.3 149.1C152.2 148.3 152.6 146.6 152.6 144V113C152.6 110.3 152.1 108.5 151.1 107.7C150.4 107.2 148.9 106.8 146.5 106.6V104.8H169C173.7 104.8 177.5 105.3 180.3 106.3C185.9 108.3 188.7 111.8 188.7 117C188.7 120.8 187.2 123.8 184.3 126C182.1 127.6 179.7 128.7 177.2 129.1L192.1 149C192.5 149.5 192.9 149.9 193.3 150.1C193.7 150.3 194.3 150.4 194.9 150.4V152.1H180.3L164 130.2V144C164 146.5 164.4 148.1 165.2 149C166 149.9 167.7 150.3 170.1 150.4V152.2H146.4V150.4ZM173.7 126.2C175.7 125 176.7 122.2 176.7 117.7C176.7 115 176.3 112.8 175.6 111.3C174.3 108.6 171.9 107.3 168.5 107.3C166.6 107.3 165.4 107.5 164.8 108C164.2 108.5 163.9 109.2 163.9 110.3V128.1C168.4 128 171.7 127.4 173.7 126.2Z" fill="#B11F24"/>
<path d="M240.5 110.7C245.3 115.4 247.7 121.4 247.7 128.7C247.7 136.1 245.3 142.1 240.5 146.7C235.8 151.3 229.9 153.5 222.9 153.5C215.4 153.5 209.3 151 204.6 146C200.2 141.3 198 135.6 198 129C198 121.7 200.3 115.6 204.9 110.9C209.5 106.1 215.5 103.7 222.9 103.7C230 103.9 235.8 106.1 240.5 110.7ZM233.7 141.9C234.7 138.5 235.3 134.1 235.3 128.7C235.3 121.2 234.2 115.6 232 111.8C229.8 108 226.8 106.1 222.9 106.1C217.6 106.1 214 109.3 212 115.6C211 118.9 210.5 123.3 210.5 128.7C210.5 134.1 211 138.5 212.1 141.9C214 148.1 217.7 151.2 223 151.2C228.1 151.3 231.8 148.1 233.7 141.9Z" fill="#B11F24"/>
<path d="M255.1 150.4C257.1 150.4 258.5 150.1 259.4 149.7C260.8 149 261.5 147.6 261.5 145.5V111.6C261.5 109.5 260.8 108.2 259.5 107.5C258.7 107.1 257.2 106.8 255.1 106.7V104.9H279.6V106.7C277.4 106.8 275.9 107 275.1 107.4C273.7 108.1 273 109.5 273 111.6V145.5C273 147.5 273.5 148.8 274.6 149.4C275.7 150.1 277.3 150.4 279.5 150.4V152.2H255V150.4H255.1Z" fill="#2F9947"/>
<path d="M287.7 150.4C290.3 150.3 292 149.8 292.7 148.9C293.5 148 293.8 146.6 293.8 144.8V111.6C291.7 109.2 290.3 107.8 289.8 107.4C289.3 107 288.6 106.7 287.7 106.6V104.8H302.5L326.6 134H326.9V113.4C326.9 111 326.5 109.3 325.6 108.3C324.7 107.3 323 106.7 320.4 106.5V104.7H335.4V106.5C333.2 106.9 331.7 107.3 331 108C330.3 108.6 329.9 110 329.9 112.1V153.4H328L297.2 116H297V143.4C297 145.6 297.3 147.1 297.9 148C298.8 149.4 300.7 150.2 303.6 150.3V152.1H287.7V150.4Z" fill="#1D2E5D"/>
<path d="M338.1 150.4C339.9 150.3 341.1 150 341.9 149.6C343.3 148.9 344 147.6 344 145.7V111.2C344 109.4 343.4 108.1 342.1 107.4C341.3 107 340 106.7 338.2 106.5V104.7H359.6C368.2 104.7 374.8 107 379.4 111.6C383.5 115.8 385.6 121.4 385.6 128.5C385.6 134.8 383.5 140.2 379.4 144.6C374.7 149.5 368.4 152 360.4 152H338.3V150.4H338.1ZM356.1 148.9C356.6 149.5 357.6 149.9 359.1 149.9C363.2 149.9 366.7 148.4 369.3 145.5C371.9 142.6 373.3 136.9 373.3 128.6C373.3 123.7 372.6 119.4 371.1 115.9C368.8 110.2 364.9 107.3 359.3 107.3C357.5 107.3 356.3 107.7 355.7 108.5C355.3 109 355.2 110 355.2 111.4V145.9C355.3 147.2 355.6 148.3 356.1 148.9Z" fill="#1D2E5D"/>
<path d="M412.5 104.9V106.7C409.8 106.8 408 107.2 407.1 108C406.2 108.7 405.7 110.5 405.7 113.1V136.6C405.7 140.2 406.1 142.9 407 144.9C408.5 148.5 411.5 150.3 415.8 150.3C421.2 150.3 424.8 148.3 426.7 144.3C427.7 142.1 428.3 139 428.3 135.1V113.7C428.3 111.2 427.8 109.5 426.9 108.5C426 107.5 424.2 107 421.5 106.8V105H436.9V106.8C434.7 107.2 433.2 107.8 432.5 108.4C431.8 109 431.4 110.5 431.4 112.7V135C431.4 140.9 430 145.5 427.1 148.8C424.2 152 419.7 153.7 413.6 153.7C405.6 153.7 400.1 151.3 397.1 146.5C395.5 143.9 394.7 140.7 394.7 136.6V113.2C394.7 110.6 394.4 108.9 393.7 108.2C393 107.5 391.4 107 389 106.8V105H412.5V104.9Z" fill="#1D2E5D"/>
<path d="M440.7 135.9H442.7C443.8 141.1 445.6 144.9 448.1 147.3C450.6 149.7 453.4 150.9 456.6 150.9C459.7 150.9 461.9 150.1 463.3 148.5C464.6 146.9 465.3 145.2 465.3 143.4C465.3 141.3 464.6 139.6 463.2 138.3C462.3 137.4 460.5 136.3 457.7 134.9L453.2 132.6C448.8 130.4 445.7 128.2 443.8 126C442 123.8 441.1 121.1 441.1 117.9C441.1 114.5 442.3 111.3 444.7 108.3C447.1 105.3 450.8 103.9 455.8 103.9C458.3 103.9 460.8 104.3 463.1 105.1C465.5 105.9 466.8 106.3 467.2 106.3C468 106.3 468.5 106.1 468.8 105.6C469.1 105.2 469.3 104.6 469.5 103.8H471.6V119H469.7C468.8 115.5 467.2 112.4 464.9 109.9C462.6 107.3 459.8 106.1 456.5 106.1C454.2 106.1 452.4 106.7 451 108C449.7 109.3 449 110.9 449 112.7C449 114.9 449.6 116.6 450.9 117.7C452.1 118.8 454.9 120.5 459.2 122.6L464.4 125.2C466.7 126.4 468.5 127.7 469.9 129.1C472.5 131.7 473.7 135 473.7 138.7C473.7 142.2 472.3 145.6 469.6 148.7C466.9 151.8 462.5 153.4 456.4 153.4C455 153.4 453.6 153.3 452.2 153C450.8 152.7 449.4 152.3 448 151.8L446.7 151.3C446.4 151.2 446.1 151.1 445.8 151.1C445.5 151 445.3 151 445.1 151C444.4 151 443.9 151.2 443.6 151.6C443.3 152 443.1 152.6 442.9 153.4H440.9V135.9H440.7Z" fill="#1D2E5D"/>
<path d="M479 104.9H521.1L521.2 119H519.2C518.5 114 516.6 110.5 513.5 108.8C511.7 107.8 509.1 107.3 505.6 107.2V144C505.6 146.6 506.1 148.3 507 149.1C507.9 149.9 509.8 150.4 512.6 150.4V152.2H487.6V150.4C490.3 150.4 492.2 150 493.1 149.1C494 148.2 494.4 146.5 494.4 144V107.1C491 107.2 488.4 107.7 486.5 108.7C483.2 110.5 481.3 113.9 480.8 118.9H478.8L479 104.9Z" fill="#1D2E5D"/>
<path d="M525 150.4C527.4 150.3 529 149.8 529.9 149.1C530.8 148.3 531.2 146.6 531.2 144V113C531.2 110.3 530.7 108.5 529.7 107.7C529 107.2 527.5 106.8 525.1 106.6V104.8H547.6C552.3 104.8 556.1 105.3 558.9 106.3C564.5 108.3 567.3 111.8 567.3 117C567.3 120.8 565.8 123.8 562.9 126C560.7 127.6 558.3 128.7 555.8 129.1L570.7 149C571.1 149.5 571.5 149.9 571.9 150.1C572.3 150.3 572.9 150.4 573.5 150.4V152.1H558.9L542.6 130.2V144C542.6 146.5 543 148.1 543.8 149C544.6 149.9 546.3 150.3 548.7 150.4V152.2H525V150.4ZM552.3 126.2C554.3 125 555.3 122.2 555.3 117.7C555.3 115 554.9 112.8 554.2 111.3C552.9 108.6 550.5 107.3 547.1 107.3C545.2 107.3 544 107.5 543.4 108C542.8 108.5 542.5 109.2 542.5 110.3V128.1C547.1 128 550.4 127.4 552.3 126.2Z" fill="#1D2E5D"/>
<path d="M575.6 150.4C577.6 150.4 579 150.1 579.9 149.7C581.3 149 582 147.6 582 145.5V111.6C582 109.5 581.3 108.2 580 107.5C579.2 107.1 577.7 106.8 575.6 106.7V104.9H600V106.7C597.8 106.8 596.3 107 595.5 107.4C594.1 108.1 593.4 109.5 593.4 111.6V145.5C593.4 147.5 593.9 148.8 595 149.4C596.1 150.1 597.7 150.4 599.9 150.4V152.2H575.4V150.4H575.6Z" fill="#1D2E5D"/>
<path d="M602.9 150.4C604.6 150.3 605.9 149.5 607 148.1C607.7 147.2 608.6 145.3 609.8 142.2L625.4 103.9H627.3L642.9 140.7C644.7 144.8 646 147.5 646.8 148.7C647.7 149.9 648.9 150.5 650.5 150.4V152.2H627.8V150.4C630.1 150.3 631.6 150.1 632.3 149.8C633 149.5 633.4 148.8 633.4 147.5C633.4 147 633.2 146.1 632.9 145C632.7 144.3 632.4 143.5 632 142.6L630.2 138.4H614.5C613.5 141.2 612.8 143 612.5 143.8C611.9 145.6 611.6 146.9 611.6 147.7C611.6 148.7 612.3 149.4 613.6 149.9C614.4 150.2 615.6 150.3 617.2 150.3V152.1H602.9V150.4ZM629.2 135.7L622.5 119.5H621.9L615.6 135.7H629.2Z" fill="#1D2E5D"/>
<path d="M64.5 124.2C63.4 91.5999 90.9 65.1999 123.5 65.1999C146.6 65.1999 166.5 78.3999 176.2 97.6999H194.5C183.8 68.8999 156 48.3999 123.5 48.3999C81.6 48.3999 47.7 82.2999 47.7 124.2C47.7 164.6 79.2999 197.6 119.2 199.9C119.2 199.9 66.2 173.8 64.5 124.2Z" fill="#A7A7A7"/>
<path d="M226.4 53.6L192.3 18.7L175.3 29.8L150.6 18.7L143.9 0H98.7L91.9 20.4L69.8 31.5L49.4 19.6L16.2 51.9L28.1 74L20.4 92.7L0 97.9V151.5L21.7 156.1L31.5 180.5L20.4 195L51.9 227.3L78.3 220.5C78.3 220.5 102.1 230.7 117.5 227.3C117.5 227.3 56.2 201.5 40.7 151.2C37.8 142.8 36.3 133.9 36.3 124.5C36.3 77.7 75.4 39.8 123.6 39.8C160.9 39.8 192.6 65.7 205 97.6L230 97.4L215.4 73.1L226.4 53.6Z" fill="#1D2E5D"/>
<path d="M652.9 159.7H108.1V160.5H652.9V159.7Z" fill="black"/>
<path d="M109 174.2C109 170.5 111.8 167.8 115.7 167.8C117.6 167.8 119.3 168.5 120.5 169.8L119.3 170.9C118.3 169.9 117.1 169.4 115.8 169.4C113 169.4 110.8 171.5 110.8 174.2C110.8 176.9 112.9 179 115.8 179C117.2 179 118.4 178.5 119.3 177.5L120.5 178.6C119.3 179.9 117.7 180.6 115.7 180.6C111.8 180.6 109 177.9 109 174.2Z" fill="black"/>
<path d="M132.2 178.9V180.5H123.1V167.9H132V169.5H124.9V173.4H131.2V174.9H124.9V179H132.2V178.9Z" fill="black"/>
<path d="M146.1 167.9V180.5H144.6L137 171.1V180.5H135.2V167.9H136.7L144.3 177.3V167.9H146.1Z" fill="black"/>
<path d="M152.4 169.4H148.1V167.8H158.5V169.4H154.2V180.4H152.4V169.4Z" fill="black"/>
<path d="M169 180.5L166.3 176.6C166 176.6 165.8 176.6 165.5 176.6H162.4V180.4H160.6V167.8H165.5C168.8 167.8 170.8 169.5 170.8 172.2C170.8 174.1 169.8 175.5 168 176.2L171 180.4H169V180.5ZM168.9 172.3C168.9 170.5 167.7 169.5 165.4 169.5H162.3V175.2H165.4C167.7 175.1 168.9 174.1 168.9 172.3Z" fill="black"/>
<path d="M172.7 174.2C172.7 170.5 175.5 167.8 179.4 167.8C183.2 167.8 186.1 170.5 186.1 174.2C186.1 177.9 183.3 180.6 179.4 180.6C175.5 180.6 172.7 177.9 172.7 174.2ZM184.3 174.2C184.3 171.4 182.2 169.4 179.4 169.4C176.6 169.4 174.5 171.5 174.5 174.2C174.5 176.9 176.6 179 179.4 179C182.2 179 184.3 177 184.3 174.2Z" fill="black"/>
<path d="M193.8 167.9H199.1C203.2 167.9 205.9 170.5 205.9 174.2C205.9 177.9 203.1 180.5 199.1 180.5H193.8V167.9ZM199 178.9C202.1 178.9 204.1 177 204.1 174.2C204.1 171.4 202.1 169.5 199 169.5H195.6V179H199V178.9Z" fill="black"/>
<path d="M217.9 178.9V180.5H208.8V167.9H217.7V169.5H210.6V173.4H216.9V174.9H210.6V179H217.9V178.9Z" fill="black"/>
<path d="M225.8 167.9H231.1C235.2 167.9 237.9 170.5 237.9 174.2C237.9 177.9 235.1 180.5 231.1 180.5H225.8V167.9ZM231 178.9C234.1 178.9 236.1 177 236.1 174.2C236.1 171.4 234.1 169.5 231 169.5H227.6V179H231V178.9Z" fill="black"/>
<path d="M249.9 178.9V180.5H240.8V167.9H249.7V169.5H242.6V173.4H248.9V174.9H242.6V179H249.9V178.9Z" fill="black"/>
<path d="M251.7 179L252.4 177.6C253.3 178.4 254.9 179.1 256.6 179.1C258.8 179.1 259.7 178.3 259.7 177.2C259.7 174.1 252.1 176.1 252.1 171.4C252.1 169.5 253.6 167.8 256.9 167.8C258.4 167.8 259.9 168.2 261 168.9L260.4 170.3C259.3 169.6 258.1 169.3 256.9 169.3C254.8 169.3 253.8 170.2 253.8 171.3C253.8 174.4 261.4 172.5 261.4 177.1C261.4 179 259.9 180.7 256.5 180.7C254.6 180.6 252.7 180 251.7 179Z" fill="black"/>
<path d="M272.1 177.3H265.4L264 180.5H262.1L267.8 167.9H269.6L275.3 180.5H273.4L272.1 177.3ZM271.5 175.9L268.8 169.7L266.1 175.9H271.5Z" fill="black"/>
<path d="M285.8 180.5L283.1 176.6C282.8 176.6 282.6 176.6 282.3 176.6H279.2V180.4H277.4V167.8H282.3C285.6 167.8 287.6 169.5 287.6 172.2C287.6 174.1 286.6 175.5 284.8 176.2L287.8 180.4H285.8V180.5ZM285.7 172.3C285.7 170.5 284.5 169.5 282.2 169.5H279.1V175.2H282.2C284.5 175.1 285.7 174.1 285.7 172.3Z" fill="black"/>
<path d="M298.9 180.5L296.2 176.6C295.9 176.6 295.7 176.6 295.4 176.6H292.3V180.4H290.5V167.8H295.4C298.7 167.8 300.7 169.5 300.7 172.2C300.7 174.1 299.7 175.5 297.9 176.2L300.9 180.4H298.9V180.5ZM298.9 172.3C298.9 170.5 297.7 169.5 295.4 169.5H292.3V175.2H295.4C297.7 175.1 298.9 174.1 298.9 172.3Z" fill="black"/>
<path d="M302.7 174.2C302.7 170.5 305.5 167.8 309.4 167.8C313.2 167.8 316.1 170.5 316.1 174.2C316.1 177.9 313.3 180.6 309.4 180.6C305.5 180.6 302.7 177.9 302.7 174.2ZM314.2 174.2C314.2 171.4 312.1 169.4 309.3 169.4C306.5 169.4 304.4 171.5 304.4 174.2C304.4 176.9 306.5 179 309.3 179C312.2 179 314.2 177 314.2 174.2Z" fill="black"/>
<path d="M318.9 167.9H320.7V178.9H327.5V180.5H318.9V167.9Z" fill="black"/>
<path d="M329.6 167.9H331.4V178.9H338.2V180.5H329.6V167.9Z" fill="black"/>
<path d="M339.1 174.2C339.1 170.5 341.9 167.8 345.8 167.8C349.6 167.8 352.5 170.5 352.5 174.2C352.5 177.9 349.7 180.6 345.8 180.6C342 180.6 339.1 177.9 339.1 174.2ZM350.7 174.2C350.7 171.4 348.6 169.4 345.8 169.4C343 169.4 340.9 171.5 340.9 174.2C340.9 176.9 343 179 345.8 179C348.6 179 350.7 177 350.7 174.2Z" fill="black"/>
<path d="M365.1 176.1V180.5H363.3V176.1L358.3 167.9H360.2L364.2 174.5L368.3 167.9H370.1L365.1 176.1Z" fill="black"/>
<path d="M375.9 174.2C375.9 170.5 378.7 167.8 382.6 167.8C384.5 167.8 386.2 168.5 387.4 169.8L386.2 170.9C385.2 169.9 384 169.4 382.7 169.4C379.9 169.4 377.7 171.5 377.7 174.2C377.7 176.9 379.8 179 382.7 179C384.1 179 385.3 178.5 386.2 177.5L387.4 178.6C386.2 179.9 384.6 180.6 382.6 180.6C378.7 180.6 375.9 177.9 375.9 174.2Z" fill="black"/>
<path d="M388.7 174.2C388.7 170.5 391.5 167.8 395.4 167.8C399.2 167.8 402.1 170.5 402.1 174.2C402.1 177.9 399.3 180.6 395.4 180.6C391.5 180.6 388.7 177.9 388.7 174.2ZM400.3 174.2C400.3 171.4 398.2 169.4 395.4 169.4C392.6 169.4 390.5 171.5 390.5 174.2C390.5 176.9 392.6 179 395.4 179C398.2 179 400.3 177 400.3 174.2Z" fill="black"/>
<path d="M416.6 180.5V171.3L412 179H411.2L406.6 171.4V180.5H404.9V167.9H406.4L411.7 176.8L416.9 167.9H418.4V180.5H416.6Z" fill="black"/>
<path d="M432.3 172.3C432.3 175 430.3 176.7 427 176.7H424V180.5H422.2V167.9H427.1C430.4 167.9 432.3 169.5 432.3 172.3ZM430.5 172.3C430.5 170.5 429.3 169.5 427 169.5H424V175.2H427.1C429.3 175.1 430.5 174.1 430.5 172.3Z" fill="black"/>
<path d="M444.2 178.9V180.5H435.1V167.9H444V169.5H436.9V173.4H443.2V174.9H436.9V179H444.2V178.9Z" fill="black"/>
<path d="M449.7 169.4H445.4V167.8H455.8V169.4H451.5V180.4H449.7V169.4Z" fill="black"/>
<path d="M457.8 167.9H459.6V180.5H457.8V167.9Z" fill="black"/>
<path d="M466 169.4H461.7V167.8H472.1V169.4H467.8V180.4H466V169.4Z" fill="black"/>
<path d="M474.1 167.9H475.9V180.5H474.1V167.9Z" fill="black"/>
<path d="M490.6 167.9L485.1 180.5H483.3L477.8 167.9H479.7L484.2 178.3L488.8 167.9H490.6Z" fill="black"/>
<path d="M492.3 167.9H494.1V180.5H492.3V167.9Z" fill="black"/>
<path d="M497.9 167.9H503.2C507.3 167.9 510 170.5 510 174.2C510 177.9 507.2 180.5 503.2 180.5H497.9V167.9ZM503.1 178.9C506.2 178.9 508.2 177 508.2 174.2C508.2 171.4 506.2 169.5 503.1 169.5H499.7V179H503.1V178.9Z" fill="black"/>
<path d="M520.7 177.3H514L512.6 180.5H510.7L516.4 167.9H518.2L523.9 180.5H522L520.7 177.3ZM520.1 175.9L517.4 169.7L514.7 175.9H520.1Z" fill="black"/>
<path d="M525.9 167.9H531.2C535.3 167.9 538 170.5 538 174.2C538 177.9 535.2 180.5 531.2 180.5H525.9V167.9ZM531.1 178.9C534.2 178.9 536.2 177 536.2 174.2C536.2 171.4 534.2 169.5 531.1 169.5H527.7V179H531.1V178.9Z" fill="black"/>
<path d="M545.8 167.9H547.6V180.5H545.8V167.9Z" fill="black"/>
<path d="M562.3 167.9V180.5H560.8L553.2 171.1V180.5H551.4V167.9H552.9L560.5 177.3V167.9H562.3Z" fill="black"/>
<path d="M566.1 167.9H571.4C575.5 167.9 578.2 170.5 578.2 174.2C578.2 177.9 575.4 180.5 571.4 180.5H566.1V167.9ZM571.3 178.9C574.4 178.9 576.4 177 576.4 174.2C576.4 171.4 574.4 169.5 571.3 169.5H567.9V179H571.3V178.9Z" fill="black"/>
<path d="M581 175V167.8H582.8V174.9C582.8 177.7 584.1 179 586.3 179C588.5 179 589.9 177.7 589.9 174.9V167.8H591.6V175C591.6 178.7 589.6 180.6 586.3 180.6C583 180.6 581 178.7 581 175Z" fill="black"/>
<path d="M594.2 179L594.9 177.6C595.8 178.4 597.4 179.1 599.1 179.1C601.3 179.1 602.2 178.3 602.2 177.2C602.2 174.1 594.6 176.1 594.6 171.4C594.6 169.5 596.1 167.8 599.4 167.8C600.9 167.8 602.4 168.2 603.5 168.9L602.9 170.3C601.8 169.6 600.6 169.3 599.4 169.3C597.3 169.3 596.3 170.2 596.3 171.3C596.3 174.4 603.9 172.5 603.9 177.1C603.9 179 602.4 180.7 599 180.7C597.1 180.6 595.2 180 594.2 179Z" fill="black"/>
<path d="M608.9 169.4H604.6V167.8H615V169.4H610.7V180.4H608.9V169.4Z" fill="black"/>
<path d="M625.5 180.5L622.8 176.6C622.5 176.6 622.3 176.6 622 176.6H618.9V180.4H617.1V167.8H622C625.3 167.8 627.3 169.5 627.3 172.2C627.3 174.1 626.3 175.5 624.5 176.2L627.5 180.4H625.5V180.5ZM625.4 172.3C625.4 170.5 624.2 169.5 621.9 169.5H618.8V175.2H621.9C624.2 175.1 625.4 174.1 625.4 172.3Z" fill="black"/>
<path d="M630.2 167.9H632V180.5H630.2V167.9Z" fill="black"/>
<path d="M643.9 177.3H637.2L635.8 180.5H634L639.7 167.9H641.5L647.2 180.5H645.3L643.9 177.3ZM643.3 175.9L640.6 169.7L637.9 175.9H643.3Z" fill="black"/>
<path d="M649.1 167.9H650.9V178.9H657.7V180.5H649.1V167.9Z" fill="black"/>
</svg>
