<svg width="519" height="305" viewBox="0 0 519 305" fill="none" xmlns="http://www.w3.org/2000/svg">
<path d="M286.948 91.2L290.548 72.8L280.848 50L270.048 38.7C270.048 38.7 269.348 38.2 269.448 38.2C286.748 45.7 299.748 66.2 301.948 91V91.1L286.948 91.2ZM281.448 91.2L262.448 91.1V39.2C262.448 39.2 262.648 39.3 262.648 39.4C273.848 49 281.448 68.2 281.448 90.4C281.448 90.7 281.448 91.2 281.448 91.2ZM301.748 91.1H286.948C286.948 91.1 286.948 89.3 286.848 88.4C286.848 89.5 286.948 85 286.348 79.3C284.948 65.5 280.748 54.4 274.648 44.8C272.148 40.9 269.348 38.2 269.348 38.2L269.248 38.1C269.248 38.1 270.648 39 271.548 39.5C272.748 40.3 273.948 41 275.048 41.8C279.048 44.6 282.448 47.9 284.248 49.7C284.448 49.9 285.048 50.5 285.748 51.3C286.448 52.1 287.148 52.9 287.748 53.6C290.048 56.3 292.248 59.4 294.148 62.9C295.248 64.8 296.148 66.8 296.948 68.8C300.248 76.9 301.448 85 301.748 90.4C301.748 90.5 301.748 91.1 301.748 91.1ZM309.148 88.6L301.848 58.9L286.448 42.5C286.448 42.5 281.848 39.3 279.248 37.5C278.248 36.8 277.448 36.4 277.448 36.4H277.548C299.448 45.2 315.048 66.3 315.948 91.1V91.2L309.148 88.6ZM307.448 91.2C307.448 91.2 306.948 85.2 305.848 79.8C304.948 75.2 303.448 71.2 303.348 70.7C302.448 68.1 301.448 65.2 299.848 62.1C296.948 56.5 294.048 51.2 288.748 45.6C287.148 43.9 285.348 42.1 283.248 40.3C281.848 39.1 280.648 38.2 279.648 37.6C280.148 37.9 280.848 38.3 281.648 38.8C283.248 39.7 285.048 40.8 287.048 42.1C287.948 42.7 288.748 43.3 289.648 44C289.848 44.1 292.648 46.3 295.448 48.9C297.748 51.1 299.948 53.6 301.448 55.4C304.148 58.8 306.748 62.7 308.948 67.1C311.548 72.2 313.248 77.4 314.248 82C315.048 85.5 315.648 91 315.648 91L307.448 91.2ZM301.748 91.1H286.948C286.948 91.1 286.948 89.3 286.848 88.4C286.848 89.5 286.948 85 286.348 79.3C284.948 65.5 280.748 54.4 274.648 44.8C272.148 40.9 269.348 38.2 269.348 38.2L269.248 38.1C269.248 38.1 270.648 39 271.548 39.5C272.748 40.3 273.948 41 275.048 41.8C279.048 44.6 282.448 47.9 284.248 49.7C284.448 49.9 285.048 50.5 285.748 51.3C286.448 52.1 287.148 52.9 287.748 53.6C290.048 56.3 292.248 59.4 294.148 62.9C295.248 64.8 296.148 66.8 296.948 68.8C300.248 76.9 301.448 85 301.748 90.4C301.748 90.5 301.748 91.1 301.748 91.1ZM248.948 38.8L238.148 50.1L228.448 72.8L232.048 91.2L217.148 91.1V91C219.348 66.2 232.248 45.8 249.648 38.2L248.948 38.8ZM237.548 91.2C237.548 91.2 237.548 90.7 237.548 90.4C237.548 68.3 245.148 49 256.348 39.4C256.448 39.3 256.548 39.2 256.548 39.2V91.1L237.548 91.2ZM249.548 38.3C249.548 38.3 246.748 41 244.248 44.9C238.148 54.4 233.948 65.6 232.548 79.4C231.948 85.1 231.948 89.7 232.048 88.5C232.048 89.5 231.948 91.2 231.948 91.2H217.148C217.148 91.2 217.148 90.6 217.148 90.5C217.548 85.1 218.648 77.1 221.948 68.9C222.748 66.9 223.648 64.9 224.748 63C226.748 59.5 228.948 56.4 231.148 53.7C231.648 53 232.448 52.2 233.148 51.4C233.848 50.6 234.448 50 234.648 49.8C236.448 48 239.848 44.7 243.848 41.9C244.948 41.1 246.148 40.3 247.348 39.6C248.248 39.1 249.648 38.2 249.548 38.3ZM239.648 37.5C237.048 39.3 232.448 42.5 232.448 42.5L217.048 59L209.248 91.3H202.948C202.948 91.3 202.948 91.3 202.948 91.2C203.848 66.4 219.448 45.3 241.348 36.5H241.448C241.448 36.5 240.648 36.8 239.648 37.5ZM230.348 45.6C225.048 51.2 222.148 56.5 219.248 62.1C217.648 65.2 216.648 68.1 215.748 70.7C215.548 71.2 214.148 75.2 213.248 79.8C212.148 85.2 211.648 91.2 211.648 91.2H203.448C203.448 91.2 204.048 85.7 204.848 82.2C205.848 77.6 207.548 72.4 210.148 67.3C212.348 62.9 214.948 59 217.648 55.6C219.148 53.7 221.348 51.2 223.648 49.1C226.448 46.5 229.248 44.3 229.448 44.2C230.348 43.5 231.248 42.9 232.048 42.3C234.048 41 235.948 39.9 237.448 39C238.248 38.5 238.948 38.1 239.448 37.8C238.548 38.4 237.348 39.3 235.848 40.5C233.748 42.1 231.948 43.9 230.348 45.6ZM249.548 38.3C249.548 38.3 246.748 41 244.248 44.9C238.148 54.4 233.948 65.6 232.548 79.4C231.948 85.1 231.948 89.7 232.048 88.5C232.048 89.5 231.948 91.2 231.948 91.2H217.148C217.148 91.2 217.148 90.6 217.148 90.5C217.548 85.1 218.648 77.1 221.948 68.9C222.748 66.9 223.648 64.9 224.748 63C226.748 59.5 228.948 56.4 231.148 53.7C231.648 53 232.448 52.2 233.148 51.4C233.848 50.6 234.448 50 234.648 49.8C236.448 48 239.848 44.7 243.848 41.9C244.948 41.1 246.148 40.3 247.348 39.6C248.248 39.1 249.648 38.2 249.548 38.3ZM270.548 17.8H248.348C248.148 17.8 247.948 17.6 247.948 17.4V16.5C247.948 16.3 248.148 16.1 248.348 16.1H270.548C270.748 16.1 270.948 16.3 270.948 16.5V17.4C270.948 17.7 270.748 17.8 270.548 17.8ZM270.548 34.6H248.348C248.148 34.6 247.948 34.4 247.948 34.2V33.3C247.948 33.1 248.148 32.9 248.348 32.9H270.548C270.748 32.9 270.948 33.1 270.948 33.3V34.2C270.948 34.4 270.748 34.6 270.548 34.6ZM318.848 97.1H200.048C199.848 97.1 199.648 96.9 199.648 96.7V95.7C199.648 95.5 199.848 95.3 200.048 95.3H318.848C319.048 95.3 319.248 95.5 319.248 95.7V96.7C319.248 97 319.048 97.1 318.848 97.1ZM257.348 4.5H257.048C257.048 4.5 256.948 4.5 256.948 4.4V3.6C256.948 3.6 256.948 3.5 257.048 3.5H257.348C257.348 3.5 257.448 3.5 257.448 3.6L257.348 4.5C257.448 4.5 257.448 4.5 257.348 4.5ZM261.848 4.5H261.548C261.548 4.5 261.448 4.5 261.448 4.4V3.6C261.448 3.6 261.448 3.5 261.548 3.5H261.848C261.848 3.5 261.948 3.5 261.948 3.6L261.848 4.5C261.948 4.5 261.948 4.5 261.848 4.5ZM256.948 4.7V4.4H261.948V4.7H256.948ZM259.648 1.1H259.248C259.148 1.1 259.148 1.1 259.148 1V0.1C259.148 0 259.148 0 259.248 0H259.648C259.748 0 259.748 0 259.748 0.1V1C259.748 1.1 259.748 1.1 259.648 1.1ZM259.348 6.9V1.1H259.648V6.9H259.348ZM250.848 15.1C250.848 10.1 254.748 6.1 259.448 6.1C264.148 6.1 268.048 10.1 268.048 15V15.1H250.848ZM270.248 17.7H248.648C248.248 17.7 247.948 17.4 247.948 17V16.8C247.948 16.4 248.248 16.1 248.648 16.1H270.248C270.648 16.1 270.948 16.4 270.948 16.8V17C270.948 17.4 270.648 17.7 270.248 17.7ZM270.248 34.6H248.648C248.248 34.6 247.948 34.3 247.948 33.9V33.7C247.948 33.3 248.248 33 248.648 33H270.248C270.648 33 270.948 33.3 270.948 33.7V33.9C270.948 34.3 270.648 34.6 270.248 34.6ZM260.548 31.7H258.348C257.948 31.7 257.648 31.4 257.648 31V19.4C257.648 19 257.948 18.7 258.348 18.7H260.548C260.948 18.7 261.248 19 261.248 19.4V31C261.248 31.4 260.948 31.7 260.548 31.7ZM266.148 31.7H264.048C263.648 31.7 263.348 31.4 263.348 31V19.4C263.348 19 263.648 18.7 264.048 18.7H266.248C266.648 18.7 266.948 19 266.948 19.4V31C266.848 31.4 266.548 31.7 266.148 31.7ZM254.848 31.7H252.648C252.248 31.7 251.948 31.4 251.948 31V19.4C251.948 19 252.248 18.7 252.648 18.7H254.848C255.248 18.7 255.548 19 255.548 19.4V31C255.548 31.4 255.248 31.7 254.848 31.7ZM280.948 96.1V93.5C280.948 93.2 281.148 92.9 281.548 92.9H286.748C287.048 92.9 287.348 93.1 287.348 93.5V95.9L280.948 96.1ZM286.648 105.5H281.648C281.248 105.5 280.948 105.2 280.948 104.8V99.8C280.948 99.4 281.248 99.1 281.648 99.1H286.648C287.048 99.1 287.348 99.4 287.348 99.8V104.8C287.348 105.2 287.048 105.5 286.648 105.5ZM301.248 96.1V93.5C301.248 93.2 301.448 92.9 301.848 92.9H307.048C307.348 92.9 307.648 93.1 307.648 93.5V95.9L301.248 96.1ZM306.948 105.5H301.948C301.548 105.5 301.248 105.2 301.248 104.8V99.8C301.248 99.4 301.548 99.1 301.948 99.1H306.948C307.348 99.1 307.648 99.4 307.648 99.8V104.8C307.648 105.2 307.348 105.5 306.948 105.5ZM231.648 95.9V93.5C231.648 93.2 231.848 92.9 232.248 92.9H237.548C237.848 92.9 238.148 93.2 238.148 93.5V96.1L231.648 95.9ZM237.348 105.5H232.348C231.948 105.5 231.648 105.2 231.648 104.8V99.8C231.648 99.4 231.948 99.1 232.348 99.1H237.348C237.748 99.1 238.048 99.4 238.048 99.8V104.8C237.948 105.2 237.648 105.5 237.348 105.5ZM211.248 95.9V93.5C211.248 93.2 211.548 92.9 211.848 92.9H217.148C217.448 92.9 217.748 93.2 217.748 93.5V96.1L211.248 95.9ZM216.948 105.5H211.948C211.548 105.5 211.248 105.2 211.248 104.8V99.8C211.248 99.4 211.548 99.1 211.948 99.1H216.948C217.348 99.1 217.648 99.4 217.648 99.8V104.8C217.648 105.2 217.348 105.5 216.948 105.5ZM256.248 95.9V93.5C256.248 93.2 256.448 92.9 256.848 92.9H262.148C262.448 92.9 262.748 93.2 262.748 93.5V96.1L256.248 95.9ZM261.948 105.5H256.948C256.548 105.5 256.248 105.2 256.248 104.8V99.8C256.248 99.4 256.548 99.1 256.948 99.1H261.948C262.348 99.1 262.648 99.4 262.648 99.8V104.8C262.648 105.2 262.348 105.5 261.948 105.5ZM318.548 97.1H200.448C200.048 97.1 199.748 96.8 199.748 96.4V96C199.748 95.6 200.048 95.3 200.448 95.3H318.548C318.948 95.3 319.248 95.6 319.248 96V96.4C319.248 96.8 318.948 97.1 318.548 97.1ZM318.548 111.1H200.348C199.948 111.1 199.648 110.8 199.648 110.4V107.6C199.648 107.2 199.948 106.9 200.348 106.9H318.548C318.948 106.9 319.248 107.2 319.248 107.6V110.4C319.248 110.8 318.948 111.1 318.548 111.1Z" fill="#203C73"/>
<path d="M139.948 136.9C139.948 132.5 143.148 128.6 147.948 128.6C150.648 128.6 152.248 129.4 153.848 130.7L152.648 132.1C151.448 131 150.048 130.3 147.848 130.3C144.348 130.3 141.748 133.3 141.748 136.8C141.748 140.6 144.148 143.4 148.048 143.4C149.848 143.4 151.548 142.7 152.648 141.8V137.8H147.848V136.2H154.448V142.6C152.948 143.9 150.748 145 148.048 145C143.048 145.1 139.948 141.4 139.948 136.9Z" fill="#203C73"/>
<path d="M160.348 136.9C160.348 132.5 163.648 128.6 168.548 128.6C173.348 128.6 176.648 132.4 176.648 136.8C176.648 141.2 173.348 145 168.448 145C163.548 145 160.348 141.3 160.348 136.9ZM174.748 136.9C174.748 133.2 172.148 130.3 168.448 130.3C164.748 130.3 162.248 133.2 162.248 136.8C162.248 140.4 164.848 143.4 168.548 143.4C172.148 143.4 174.748 140.5 174.748 136.9Z" fill="#203C73"/>
<path d="M183.049 128.9H189.849C191.649 128.9 193.149 129.4 194.049 130.3C194.749 131 195.049 131.8 195.049 132.9C195.049 135 193.749 136 192.549 136.6C194.449 137.2 195.949 138.3 195.949 140.4C195.949 143.1 193.649 144.7 190.149 144.7H183.049V128.9ZM189.549 136C191.749 136 193.249 135 193.249 133.2C193.249 131.6 191.949 130.6 189.749 130.6H184.949V136.1H189.549V136ZM190.149 143.2C192.549 143.2 194.049 142.1 194.049 140.4C194.049 138.7 192.549 137.7 189.849 137.7H184.849V143.3H190.149V143.2Z" fill="#203C73"/>
<path d="M202.249 128.9H204.049V144.8H202.249V128.9Z" fill="#203C73"/>
<path d="M211.249 128.9H222.749V130.5H213.049V135.9H221.749V137.5H213.049V143.1H222.849V144.7H211.249V128.9Z" fill="#203C73"/>
<path d="M229.148 128.9H236.048C238.048 128.9 239.548 129.5 240.548 130.5C241.348 131.3 241.748 132.4 241.748 133.6C241.748 136.2 239.948 137.8 237.448 138.2L242.348 144.7H240.148L235.548 138.5H231.048V144.7H229.248V128.9H229.148ZM235.848 137C238.248 137 239.948 135.8 239.948 133.7C239.948 131.7 238.448 130.6 235.848 130.6H230.948V137.1H235.848V137Z" fill="#203C73"/>
<path d="M248.148 128.9H249.848L259.848 141.7V128.9H261.648V144.8H260.248L249.948 131.7V144.8H248.148V128.9Z" fill="#203C73"/>
<path d="M268.049 136.9C268.049 132.5 271.349 128.6 276.249 128.6C281.049 128.6 284.349 132.4 284.349 136.8C284.349 141.2 281.049 145 276.149 145C271.349 145.1 268.049 141.3 268.049 136.9ZM282.449 136.9C282.449 133.2 279.849 130.3 276.149 130.3C272.549 130.3 269.949 133.2 269.949 136.8C269.949 140.4 272.549 143.4 276.249 143.4C279.849 143.4 282.449 140.5 282.449 136.9Z" fill="#203C73"/>
<path d="M300.148 128.9H305.648C310.648 128.9 314.148 132.3 314.148 136.8C314.148 141.3 310.648 144.8 305.648 144.8H300.148V128.9ZM305.648 143.1C309.648 143.1 312.248 140.4 312.248 136.8C312.248 133.3 309.648 130.5 305.648 130.5H301.948V143.1H305.648Z" fill="#203C73"/>
<path d="M320.549 128.9H332.049V130.5H322.349V135.9H331.049V137.5H322.349V143.1H332.149V144.7H320.549V128.9Z" fill="#203C73"/>
<path d="M347.848 128.9H349.648V143.2H358.648V144.9H347.848V128.9Z" fill="#203C73"/>
<path d="M370.348 128.7H372.048L379.348 144.8H377.448L375.548 140.6H366.848L364.948 144.8H363.148L370.348 128.7ZM374.848 139L371.248 130.9L367.648 139H374.848Z" fill="#203C73"/>
<path d="M24.2484 183.6C22.1484 184.3 19.3484 184.2 17.3484 181.7L12.2484 175.2C10.8484 173.4 9.1484 173.1 6.8484 173.1V179.5C6.8484 181.8 8.4484 182.2 10.5484 182.5C10.7484 182.5 10.6484 183.6 10.3484 183.6H0.348402C0.0484021 183.6 -0.151598 182.5 0.148402 182.5C1.8484 182.3 2.8484 181.6 2.8484 179.5V164.8C2.8484 162.6 1.6484 162 0.148402 161.6C-0.151598 161.5 0.0484021 160.4 0.348402 160.5C1.6484 160.7 3.0484 160.7 4.1484 160.7C6.5484 160.7 8.8484 160.5 10.4484 160.5C15.4484 160.5 18.7484 162.5 18.7484 166.6C18.7484 170.4 15.6484 172.3 12.8484 172.5V172.7C14.1484 172.7 15.1484 173.3 16.5484 175.1L21.4484 181.2C22.4484 182.5 23.4484 182.8 24.1484 182.8C24.4484 182.7 24.4484 183.6 24.2484 183.6ZM14.5484 167.4C14.5484 163.9 12.3484 162.1 9.3484 162.1C7.4484 162.1 6.7484 162.9 6.7484 164.7V171.5H7.7484C12.7484 171.5 14.5484 170.7 14.5484 167.4Z" fill="#203C73"/>
<path d="M29.5483 182.4C31.4483 181.9 32.9483 181.6 32.9483 179.2V164.6C32.9483 162.5 31.6483 161.9 30.1483 161.6C29.8483 161.5 30.0483 160.4 30.3483 160.5C32.7483 160.8 36.8483 160.7 38.8483 160.7C41.8483 160.7 44.0483 160.6 46.7483 160.5C47.5483 160.5 47.5483 161 47.3483 161.8L46.5483 164.9C46.4483 165.4 45.6483 165.4 45.5483 164.9C45.0483 163.3 44.0483 162.4 39.9483 162.4C37.6483 162.4 36.8483 163 36.8483 164.7V170.1C36.8483 171 37.2483 171.1 37.9483 171.1H38.6483C41.3483 171.1 43.6483 170.8 44.9483 169.6C45.2483 169.3 46.0483 169.4 45.7483 170L43.8483 174.1C43.5483 174.7 43.0483 174.6 42.7483 174.1C41.9483 173 40.3483 172.6 38.4483 172.6H37.9483C37.2483 172.6 36.8483 172.8 36.8483 173.6V179.1C36.8483 181 37.6483 181.7 40.3483 181.7C45.3483 181.7 47.2483 179.4 48.0483 178.2C48.2483 177.8 49.1483 178 49.1483 178.6C49.1483 180.3 47.7483 183.6 45.6483 183.6C43.8483 183.5 42.0483 183.4 39.2483 183.4C36.2483 183.4 32.6483 183.3 29.6483 183.6C29.3483 183.6 29.2483 182.4 29.5483 182.4Z" fill="#203C73"/>
<path d="M62.3484 174.7V179.4C62.3484 181.7 63.9484 182.1 66.0484 182.4C66.2484 182.4 66.1484 183.5 65.8484 183.5H55.8484C55.5484 183.5 55.3484 182.4 55.6484 182.4C57.3484 182.2 58.3484 181.5 58.3484 179.4V164.7C58.3484 162.5 57.1484 161.9 55.6484 161.5C55.3484 161.4 55.5484 160.3 55.8484 160.4C57.1484 160.6 58.5484 160.6 59.6484 160.6C62.0484 160.6 64.1484 160.4 65.7484 160.4C70.8484 160.4 75.0484 162.3 75.0484 167.4C75.0484 173.3 69.5484 175.8 62.3484 174.7ZM62.3484 164.8V173.1C67.9484 173.9 70.8484 172.5 70.8484 168.2C70.8484 164.3 68.3484 162.1 64.9484 162.1C62.8484 162.1 62.3484 162.9 62.3484 164.8Z" fill="#203C73"/>
<path d="M84.3484 174.9V164.6C84.3484 162.5 83.2484 161.8 81.6484 161.6C81.3484 161.6 81.5484 160.5 81.8484 160.5H90.8484C91.1484 160.5 91.3484 161.6 91.0484 161.6C89.7484 161.8 88.4484 162.3 88.4484 164.6V175.1C88.4484 179.7 91.1484 181.8 94.5484 181.8C98.1484 181.8 100.948 179.7 100.948 175.1V164.6C100.948 162.5 99.7484 161.9 98.1484 161.6C97.9484 161.6 98.0484 160.5 98.3484 160.5H105.748C105.948 160.5 106.148 161.6 105.948 161.6C104.648 161.8 103.348 162.3 103.348 164.6V174.9C103.348 180.9 99.4484 184.1 94.2484 184.1C89.5484 184 84.3484 181.6 84.3484 174.9ZM94.0484 152.3C94.6484 151.4 97.4484 154 96.6484 154.6L92.3484 157.9C91.9484 158.2 90.7484 157.2 91.1484 156.7L94.0484 152.3Z" fill="#203C73"/>
<path d="M132.348 176.9C132.348 181 128.648 183.6 123.148 183.6C121.548 183.6 119.748 183.4 117.248 183.4C115.148 183.4 113.648 183.4 112.048 183.6C111.748 183.6 111.548 182.5 111.848 182.4C113.748 181.9 115.248 181.6 115.248 179.2V164.6C115.248 162.5 113.948 161.9 112.448 161.6C112.148 161.5 112.348 160.4 112.648 160.5C113.948 160.7 115.548 160.7 116.648 160.7C119.248 160.7 121.248 160.5 122.648 160.5C126.848 160.5 130.348 162.3 130.448 165.9C130.448 168.6 128.648 170.4 126.348 170.9V171.1C129.348 171 132.348 173.2 132.348 176.9ZM119.248 164.6V170.5H122.648C125.048 170.5 126.348 169.3 126.348 166.8C126.348 163.7 124.248 162.2 121.548 162.2C119.848 162.1 119.248 162.7 119.248 164.6ZM128.048 177.6C128.048 174 125.648 172.1 122.548 172.1H119.148V179.2C119.148 181 120.048 181.9 122.948 181.9C125.848 181.9 128.048 181 128.048 177.6Z" fill="#203C73"/>
<path d="M138.548 182.4C140.448 181.9 141.948 181.6 141.948 179.2V164.6C141.948 162.3 140.648 161.8 139.148 161.6C138.848 161.6 139.048 160.5 139.348 160.5H148.448C148.648 160.5 148.848 161.6 148.648 161.6C147.248 161.8 145.948 162.3 145.948 164.6V179.2C145.948 181.1 146.748 181.8 149.448 181.8C154.448 181.8 156.348 179.5 157.148 178.3C157.348 177.9 158.248 178.1 158.248 178.7C158.248 180.4 156.848 183.7 154.748 183.7C152.948 183.6 151.148 183.5 148.348 183.5C145.348 183.5 141.748 183.4 138.748 183.7C138.448 183.6 138.348 182.4 138.548 182.4Z" fill="#203C73"/>
<path d="M164.048 182.4C165.748 182.2 166.748 181.5 166.748 179.4V164.5C166.748 162.4 165.648 161.8 164.048 161.5C163.748 161.5 163.948 160.4 164.248 160.4H173.248C173.548 160.4 173.748 161.5 173.448 161.5C172.048 161.7 170.748 162.2 170.748 164.5V179.4C170.748 181.7 172.048 182.2 173.448 182.4C173.748 182.4 173.548 183.5 173.248 183.5H164.248C164.048 183.5 163.848 182.4 164.048 182.4Z" fill="#203C73"/>
<path d="M180.448 172.4C180.448 166.7 183.948 159.9 193.148 159.9C196.948 159.9 200.248 161.1 199.848 162.2L199.448 163.5C198.248 167 196.948 162.5 191.148 162.5C186.448 162.5 184.148 165.6 184.148 170.3C184.148 177.7 189.748 180.8 194.248 180.8C194.848 180.8 197.848 180.3 199.548 179.3C199.848 179.1 200.548 179.9 200.348 180.2C198.948 182.3 194.548 184 193.548 184C187.848 184 180.448 180.8 180.448 172.4Z" fill="#203C73"/>
<path d="M230.248 183.5H221.548C221.148 183.5 221.048 182.4 221.448 182.4C222.648 182.2 223.948 181.7 222.748 178.9L222.348 178.1C222.048 177.3 221.448 177.2 220.448 177.2H213.748C212.748 177.2 212.248 177.3 211.848 178.1L211.548 178.9C210.448 181.7 211.648 182.2 213.248 182.4C213.648 182.5 213.548 183.5 213.148 183.5H206.048C205.648 183.5 205.548 182.4 205.948 182.4C207.248 182.2 208.048 181.7 209.348 178.9L214.948 166.1C216.248 163.2 216.648 161.9 216.648 160.6C216.648 160.4 218.948 159.9 219.048 160.1L227.048 178.8C228.248 181.6 229.048 182.1 230.348 182.3C230.748 182.4 230.648 183.5 230.248 183.5ZM221.048 174.9L217.248 165.7L213.348 174.9C213.148 175.4 213.648 175.4 214.148 175.4H220.348C220.748 175.4 221.248 175.3 221.048 174.9Z" fill="#203C73"/>
<path d="M246.148 182.4C248.048 181.9 249.548 181.6 249.548 179.2V164.6C249.548 162.5 248.248 161.9 246.748 161.6C246.448 161.5 246.648 160.4 246.948 160.5C248.248 160.7 249.648 160.7 251.048 160.7C253.648 160.7 255.948 160.5 257.548 160.5C265.548 160.5 269.848 165.2 269.848 171.6C269.848 177.9 265.548 183.7 257.548 183.7C255.948 183.7 253.948 183.5 251.548 183.5C249.548 183.5 247.848 183.5 246.348 183.7C246.048 183.6 245.948 182.4 246.148 182.4ZM265.948 173.4C265.948 167.1 262.548 162.2 256.648 162.2C254.348 162.2 253.548 162.9 253.548 164.6V179.2C253.548 181 254.748 181.9 257.948 181.9C263.248 181.8 265.948 178.9 265.948 173.4Z" fill="#203C73"/>
<path d="M277.048 172.1C277.048 165.5 281.748 159.9 288.948 159.9C295.848 159.9 300.848 164.9 300.848 171.8C300.848 178.5 296.148 184 288.948 184C282.048 184 277.048 179 277.048 172.1ZM296.948 173.7C296.948 167.1 292.448 162.2 287.748 162.2C284.848 162.2 281.048 164.1 281.048 170.3C281.048 177 285.548 181.8 290.248 181.8C293.048 181.8 296.948 179.9 296.948 173.7Z" fill="#203C73"/>
<path d="M336.648 183.5H328.048C327.848 183.5 327.648 182.4 327.848 182.4C329.248 182.2 330.248 181.5 330.148 179.4L329.548 168.4L324.248 179.2C323.548 180.6 323.048 182.1 322.948 182.6C322.848 183 322.148 183.2 321.648 183.2C321.148 183.2 320.848 183 320.648 182.6L313.048 168.2L312.548 179.4C312.448 181.7 313.748 182.2 314.848 182.4C315.148 182.4 314.948 183.5 314.648 183.5H307.848C307.548 183.5 307.348 182.4 307.648 182.4C309.048 182.2 310.248 181.7 310.348 179.4L311.448 160.5C311.448 159.9 312.748 159.9 313.048 160.5L322.548 178.3L331.348 160.5C331.648 159.9 332.948 159.9 332.948 160.5L333.948 179.4C334.048 181.7 335.248 182.2 336.648 182.4C337.048 182.4 336.848 183.5 336.648 183.5Z" fill="#203C73"/>
<path d="M343.348 182.4C345.048 182.2 346.048 181.5 346.048 179.4V164.5C346.048 162.4 344.948 161.8 343.348 161.5C343.048 161.5 343.248 160.4 343.548 160.4H352.548C352.848 160.4 353.048 161.5 352.748 161.5C351.348 161.7 350.048 162.2 350.048 164.5V179.4C350.048 181.7 351.348 182.2 352.748 182.4C353.048 182.4 352.848 183.5 352.548 183.5H343.548C343.248 183.5 343.148 182.4 343.348 182.4Z" fill="#203C73"/>
<path d="M379.748 183.2L364.148 166.8V179.3C364.148 181.5 365.448 181.9 367.348 182.4C367.648 182.5 367.448 183.5 367.148 183.5H359.348C359.048 183.5 358.848 182.5 359.148 182.4C360.548 181.9 361.848 181.7 361.848 179.3V166.5C361.848 164.2 361.448 163 360.648 161.9C360.348 161.5 360.048 161.2 360.048 161.1C360.048 160.8 360.248 160.4 360.748 160.4H363.148C363.448 160.4 363.748 160.4 363.948 160.7L379.248 176.9V164.5C379.248 162.2 377.748 161.9 376.048 161.5C375.748 161.4 375.948 160.4 376.248 160.4H384.048C384.348 160.4 384.448 161.5 384.248 161.5C382.848 161.9 381.548 162.2 381.548 164.5V177.3C381.548 179.5 381.648 181.9 381.948 183.1C382.048 183.6 381.548 183.7 381.048 183.7C380.448 183.8 380.148 183.6 379.748 183.2Z" fill="#203C73"/>
<path d="M390.848 182.4C392.548 182.2 393.548 181.5 393.548 179.4V164.5C393.548 162.4 392.448 161.8 390.848 161.5C390.548 161.5 390.748 160.4 391.048 160.4H400.048C400.348 160.4 400.548 161.5 400.248 161.5C398.848 161.7 397.548 162.2 397.548 164.5V179.4C397.548 181.7 398.848 182.2 400.248 182.4C400.548 182.4 400.348 183.5 400.048 183.5H391.048C390.748 183.5 390.548 182.4 390.848 182.4Z" fill="#203C73"/>
<path d="M407.148 172.4C407.148 166.7 410.648 159.9 419.848 159.9C423.648 159.9 426.948 161.1 426.548 162.2L426.148 163.5C424.948 167 423.648 162.5 417.848 162.5C413.148 162.5 410.848 165.6 410.848 170.3C410.848 177.7 416.448 180.8 420.948 180.8C421.548 180.8 424.548 180.3 426.248 179.3C426.548 179.1 427.248 179.9 427.048 180.2C425.648 182.3 421.248 184 420.248 184C414.648 184 407.148 180.8 407.148 172.4Z" fill="#203C73"/>
<path d="M457.048 183.5H448.348C447.948 183.5 447.848 182.4 448.248 182.4C449.448 182.2 450.748 181.7 449.548 178.9L449.148 178.1C448.848 177.3 448.248 177.2 447.248 177.2H440.548C439.548 177.2 439.048 177.3 438.648 178.1L438.348 178.9C437.148 181.7 438.448 182.2 440.048 182.4C440.448 182.5 440.348 183.5 439.948 183.5H432.848C432.448 183.5 432.348 182.4 432.748 182.4C434.048 182.2 434.848 181.7 436.148 178.9L441.748 166.1C443.048 163.2 443.448 161.9 443.448 160.6C443.448 160.4 445.748 159.9 445.848 160.1L453.848 178.8C455.048 181.6 455.848 182.1 457.148 182.3C457.548 182.4 457.348 183.5 457.048 183.5ZM447.848 174.9L444.048 165.7L440.148 174.9C439.948 175.4 440.448 175.4 440.948 175.4H447.148C447.548 175.4 448.048 175.3 447.848 174.9Z" fill="#203C73"/>
<path d="M483.748 183.2L468.148 166.8V179.3C468.148 181.5 469.448 181.9 471.348 182.4C471.648 182.5 471.448 183.5 471.148 183.5H463.348C463.048 183.5 462.848 182.5 463.148 182.4C464.548 181.9 465.848 181.7 465.848 179.3V166.5C465.848 164.2 465.448 163 464.648 161.9C464.348 161.5 464.048 161.2 464.048 161.1C464.048 160.8 464.248 160.4 464.748 160.4H467.148C467.448 160.4 467.748 160.4 467.948 160.7L483.248 176.9V164.5C483.248 162.2 481.748 161.9 480.048 161.5C479.748 161.4 479.948 160.4 480.248 160.4H488.048C488.348 160.4 488.448 161.5 488.248 161.5C486.848 161.9 485.548 162.2 485.548 164.5V177.3C485.548 179.5 485.648 181.9 485.948 183.1C486.048 183.6 485.548 183.7 485.048 183.7C484.448 183.8 484.148 183.6 483.748 183.2Z" fill="#203C73"/>
<path d="M517.749 183.5H509.048C508.648 183.5 508.548 182.4 508.948 182.4C510.148 182.2 511.449 181.7 510.249 178.9L509.848 178.1C509.548 177.3 508.948 177.2 507.948 177.2H501.249C500.249 177.2 499.748 177.3 499.348 178.1L499.048 178.9C497.848 181.7 499.149 182.2 500.749 182.4C501.149 182.5 501.048 183.5 500.648 183.5H493.548C493.148 183.5 493.048 182.4 493.448 182.4C494.748 182.2 495.548 181.7 496.848 178.9L502.448 166.1C503.748 163.2 504.148 161.9 504.148 160.6C504.148 160.4 506.448 159.9 506.548 160.1L514.548 178.8C515.748 181.6 516.548 182.1 517.848 182.3C518.248 182.4 518.149 183.5 517.749 183.5ZM508.548 174.9L504.749 165.7L500.848 174.9C500.648 175.4 501.148 175.4 501.648 175.4H507.848C508.248 175.4 508.748 175.3 508.548 174.9Z" fill="#203C73"/>
<path d="M318.648 203.1H199.848V208.7H318.648V203.1Z" fill="#EC252C"/>
<path d="M24.9485 259.1C26.7485 258.9 27.8485 258.1 27.8485 255.9V240.2C27.8485 238 26.7485 237.3 24.9485 237C24.6485 237 24.8485 235.7 25.1485 235.7H35.2485C35.5485 235.7 35.7485 237 35.4485 237C33.9485 237.2 32.5485 237.7 32.5485 240.2V255.9C32.5485 258.4 33.9485 258.9 35.4485 259.1C35.7485 259.1 35.5485 260.4 35.2485 260.4H25.1485C24.8485 260.4 24.6485 259.1 24.9485 259.1Z" fill="#EC252C"/>
<path d="M61.6484 260.1L44.9485 243.1V255.8C44.9485 258.2 46.3485 258.6 48.5485 259.1C48.8485 259.2 48.6484 260.4 48.3484 260.4H39.6484C39.3484 260.4 39.1485 259.2 39.4485 259.1C40.7485 258.6 42.3484 258.4 42.3484 255.8V242.4C42.3484 239.7 41.8484 238.7 41.1484 237.5C40.7484 237 40.4485 236.7 40.4485 236.5C40.4485 236.2 40.6485 235.7 41.2485 235.7H43.9485C44.3485 235.7 44.5485 235.7 44.7485 236L61.0485 252.8V240.2C61.0485 237.7 59.4485 237.4 57.4485 237C57.1485 236.9 57.3484 235.7 57.6484 235.7H66.3485C66.6485 235.7 66.7485 236.9 66.5485 237C64.9485 237.5 63.6484 237.7 63.6484 240.2V253.7C63.6484 256.2 63.7485 258.7 64.0485 260C64.1485 260.5 63.6485 260.7 63.0485 260.7C62.4485 260.7 62.0484 260.5 61.6484 260.1Z" fill="#EC252C"/>
<path d="M70.2485 259C72.2485 258.5 73.8485 258.2 73.8485 255.5V240C73.8485 237.8 72.4485 237.2 70.9485 236.8C70.6485 236.7 70.8485 235.5 71.1485 235.5C72.5485 235.7 74.0485 235.7 75.7485 235.7C78.7485 235.7 81.1485 235.5 82.9485 235.5C91.3485 235.5 96.1485 240.6 96.1485 247.4C96.1485 254 91.4485 260.3 82.9485 260.3C81.2485 260.3 79.1485 260.1 76.2485 260.1C73.8485 260.1 72.1485 260.1 70.4485 260.3C70.1485 260.5 69.9485 259.1 70.2485 259ZM91.3485 249.7C91.3485 242.8 87.7485 237.6 81.7485 237.6C79.4485 237.6 78.5485 238.3 78.5485 240.1V255.6C78.5485 257.5 80.0485 258.5 83.4485 258.5C88.9485 258.5 91.3485 255.5 91.3485 249.7Z" fill="#EC252C"/>
<path d="M103.148 251.1V240.2C103.148 238 102.048 237.2 100.348 237C100.048 237 100.248 235.7 100.548 235.7H110.648C110.948 235.7 111.148 237 110.848 237C109.448 237.1 107.948 237.7 107.948 240.2V251.3C107.948 256.2 110.748 258.4 114.248 258.4C117.948 258.4 120.948 256.2 120.948 251.3V240.2C120.948 237.9 119.648 237.3 117.948 237C117.748 237 117.848 235.7 118.148 235.7H126.248C126.448 235.7 126.748 237 126.348 237C124.948 237.1 123.548 237.7 123.548 240.2V251.1C123.548 257.6 119.348 261 113.648 261C108.848 261 103.148 258.3 103.148 251.1Z" fill="#EC252C"/>
<path d="M130.648 258.1L131.048 256.7C132.148 252.8 133.348 258.4 139.148 258.4C142.048 258.4 143.248 257 143.248 255.1C143.248 253.6 142.348 252.9 139.648 251.3L136.648 249.3C132.648 246.7 130.948 245.3 130.948 242.5C130.948 238 135.348 235.1 139.648 235.1C142.248 235.1 145.748 236.3 145.448 237.5L144.948 238.9C143.748 242.6 142.948 237.7 138.148 237.7C135.748 237.7 134.548 238.9 134.548 240.7C134.548 242.3 135.548 243.2 137.848 244.7L141.248 246.9C145.048 249.3 146.648 250.9 146.648 253.5C146.648 258 142.348 261.1 137.548 261.1C134.748 261 130.248 259.7 130.648 258.1Z" fill="#EC252C"/>
<path d="M155.648 259.1C158.148 258.8 159.748 258.3 159.748 256.4V239.3C159.748 238.4 159.448 238.1 158.548 238.1H157.748C154.548 238.1 152.448 239 151.848 240.4C151.448 241.1 150.248 241 150.348 240.4C150.648 239.2 150.948 238 151.148 236C151.248 235.3 151.648 235.4 152.248 235.4C154.148 235.6 155.348 235.6 162.248 235.6C169.048 235.6 171.248 235.5 173.248 235.4C173.948 235.3 174.548 235.3 174.248 236C173.748 237.7 173.348 239.1 173.148 240.4C173.048 241 172.048 241 171.948 240.4C171.548 239.1 169.948 238.1 167.048 238.1H166.048C165.248 238.1 164.648 238.3 164.648 239.3V256.4C164.648 258.3 166.248 258.8 168.748 259.1C169.048 259.1 168.848 260.4 168.548 260.4H156.048C155.548 260.4 155.348 259.2 155.648 259.1Z" fill="#EC252C"/>
<path d="M204.449 260.5C202.049 261.2 198.849 261.2 196.649 258.3L191.249 251.4C189.649 249.4 188.049 249.1 185.649 249.1V255.9C185.649 258.4 187.349 258.8 189.549 259.1C189.749 259.1 189.649 260.4 189.349 260.4H178.249C177.949 260.4 177.749 259.1 178.049 259.1C179.849 258.9 180.949 258.1 180.949 255.9V240.4C180.949 238.1 179.749 237.4 178.049 236.9C177.749 236.8 177.949 235.6 178.249 235.6C179.649 235.8 181.149 235.8 182.349 235.8C185.149 235.8 187.749 235.6 189.449 235.6C195.049 235.6 198.449 237.9 198.449 242.1C198.449 246.1 195.249 248.1 192.049 248.3V248.4C193.549 248.4 194.649 249.1 196.249 251L201.349 257.4C202.549 258.9 203.649 259.3 204.349 259.3C204.749 259.5 204.649 260.5 204.449 260.5ZM193.549 243.1C193.549 239.4 191.249 237.6 188.249 237.6C186.249 237.6 185.649 238.4 185.649 240.4V247.4H186.549C191.749 247.4 193.549 246.5 193.549 243.1Z" fill="#EC252C"/>
<path d="M207.848 259.1C209.648 258.9 210.748 258.1 210.748 255.9V240.2C210.748 238 209.648 237.3 207.848 237C207.548 237 207.748 235.7 208.048 235.7H218.148C218.448 235.7 218.648 237 218.348 237C216.848 237.2 215.448 237.7 215.448 240.2V255.9C215.448 258.4 216.848 258.9 218.348 259.1C218.648 259.1 218.448 260.4 218.148 260.4H208.048C207.748 260.4 207.548 259.1 207.848 259.1Z" fill="#EC252C"/>
<path d="M248.149 260.4H238.449C237.949 260.4 237.949 259.2 238.349 259.1C239.649 258.9 241.049 258.4 239.749 255.4L239.449 254.8C239.049 253.9 238.649 253.8 237.649 253.8H230.549C229.449 253.8 228.949 253.9 228.649 254.8L228.449 255.4C227.249 258.4 228.549 258.9 230.249 259.1C230.749 259.2 230.649 260.4 230.149 260.4H222.349C221.949 260.4 221.849 259.2 222.249 259.1C223.649 258.9 224.549 258.4 225.849 255.4L231.849 241.6C233.249 238.5 233.649 237.1 233.649 235.8C233.649 235.6 236.149 235 236.249 235.3L244.849 255.4C246.049 258.3 246.949 258.9 248.349 259.1C248.649 259.2 248.549 260.4 248.149 260.4ZM237.849 251.2L234.049 242L230.249 251.2C230.049 251.7 230.549 251.8 230.949 251.8H237.149C237.549 251.7 238.049 251.7 237.849 251.2Z" fill="#EC252C"/>
<path d="M251.848 265.5C253.248 264.3 255.048 262 255.048 260.4C255.048 259.5 252.748 258.9 252.748 257.9C252.748 256.9 254.748 255 255.648 255C256.548 255 258.448 256.9 258.448 257.9C258.448 260.6 255.948 264.2 252.748 266.2C252.448 266.5 251.448 265.8 251.848 265.5Z" fill="#EC252C"/>
<path d="M271.548 248.5C271.548 242.4 275.248 235.1 285.248 235.1C289.348 235.1 292.948 236.4 292.448 237.6L291.948 239.1C290.548 243.2 289.448 238.1 282.948 238.1C277.948 238.1 275.748 241.4 275.748 246.2C275.748 254.2 281.848 257.3 286.348 257.3C287.048 257.3 290.448 256.8 291.948 255.8C292.248 255.6 293.048 256.5 292.848 256.8C291.348 259 286.548 260.9 285.348 260.9C279.448 261 271.548 257.5 271.548 248.5Z" fill="#EC252C"/>
<path d="M297.749 248.2C297.749 241.1 302.849 235.1 310.549 235.1C317.949 235.1 323.349 240.5 323.349 247.8C323.349 255 318.249 260.9 310.449 260.9C303.249 261 297.749 255.6 297.749 248.2ZM318.749 249.9C318.749 242.9 314.049 237.7 309.149 237.7C306.149 237.7 302.449 239.7 302.449 246.1C302.449 253.2 307.149 258.4 312.049 258.4C314.949 258.4 318.749 256.3 318.749 249.9Z" fill="#EC252C"/>
<path d="M359.248 260.4H349.548C349.348 260.4 349.148 259.1 349.348 259.1C350.948 258.8 351.948 258 351.848 255.9L351.148 244.8L345.848 255.7C345.048 257.4 344.448 258.9 344.348 259.4C344.248 259.8 343.448 260 342.848 260C342.248 260 341.848 259.8 341.648 259.4L333.648 244.4L333.148 255.9C333.048 258.5 334.648 259 335.648 259.1C335.948 259.1 335.748 260.4 335.548 260.4H328.048C327.748 260.4 327.548 259.1 327.848 259.1C329.348 258.9 330.648 258.4 330.748 255.9L331.948 235.8C331.948 235.2 333.448 235.1 333.848 235.8L344.048 254.7L353.448 235.8C353.848 235.1 355.348 235.2 355.448 235.8L356.648 255.9C356.748 258.4 358.048 258.9 359.548 259.1C359.748 259.1 359.548 260.4 359.248 260.4Z" fill="#EC252C"/>
<path d="M363.149 259C365.149 258.5 366.749 258.2 366.749 255.5V240C366.749 237.8 365.349 237.2 363.849 236.8C363.549 236.7 363.749 235.5 364.049 235.5C366.549 235.8 371.549 235.7 373.349 235.7C376.549 235.7 378.849 235.6 381.849 235.5C382.649 235.5 382.749 236.1 382.549 236.9L381.749 240.3C381.649 240.8 380.749 240.8 380.649 240.3C380.049 238.5 379.049 237.7 374.749 237.7C372.449 237.7 371.649 238.3 371.649 240.1V245.8C371.649 246.7 372.149 246.9 372.849 246.9H373.649C376.349 246.9 378.849 246.5 380.249 245.4C380.649 245.1 381.349 245.2 381.049 245.9L379.049 250.3C378.749 251 378.249 250.9 377.849 250.4C377.049 249.2 375.249 248.8 373.449 248.8H372.849C372.149 248.8 371.649 249 371.649 249.9V255.6C371.649 257.6 372.349 258.4 375.249 258.4C380.249 258.4 382.649 255.9 383.449 254.6C383.649 254.2 384.749 254.5 384.749 255.1C384.749 256.8 383.149 260.5 380.949 260.5C378.749 260.4 377.049 260.3 374.149 260.3C370.949 260.3 366.849 260.2 363.649 260.5C363.049 260.5 362.849 259.1 363.149 259Z" fill="#EC252C"/>
<path d="M415.048 260.5C412.648 261.2 409.448 261.2 407.248 258.3L401.848 251.4C400.248 249.4 398.648 249.1 396.248 249.1V255.9C396.248 258.4 397.948 258.8 400.148 259.1C400.348 259.1 400.248 260.4 399.948 260.4H388.848C388.548 260.4 388.348 259.1 388.648 259.1C390.448 258.9 391.548 258.1 391.548 255.9V240.4C391.548 238.1 390.348 237.4 388.648 236.9C388.348 236.8 388.548 235.6 388.848 235.6C390.248 235.8 391.748 235.8 392.948 235.8C395.748 235.8 398.348 235.6 400.048 235.6C405.648 235.6 409.048 237.9 409.048 242.1C409.048 246.1 405.848 248.1 402.648 248.3V248.4C404.148 248.4 405.248 249.1 406.848 251L411.948 257.4C413.148 258.9 414.248 259.3 414.948 259.3C415.348 259.5 415.248 260.5 415.048 260.5ZM404.148 243.1C404.148 239.4 401.848 237.6 398.848 237.6C396.848 237.6 396.248 238.4 396.248 240.4V247.4H397.148C402.348 247.4 404.148 246.5 404.148 243.1Z" fill="#EC252C"/>
<path d="M417.048 248.5C417.048 242.4 420.748 235.1 430.748 235.1C434.848 235.1 438.448 236.4 437.948 237.6L437.448 239.1C436.048 243.2 434.948 238.1 428.448 238.1C423.448 238.1 421.248 241.4 421.248 246.2C421.248 254.2 427.348 257.3 431.848 257.3C432.548 257.3 435.948 256.8 437.448 255.8C437.748 255.6 438.548 256.5 438.348 256.8C436.848 259 432.048 260.9 430.848 260.9C424.948 261 417.048 257.5 417.048 248.5Z" fill="#EC252C"/>
<path d="M442.848 259.1C444.648 258.9 445.748 258.1 445.748 255.9V240.2C445.748 238 444.648 237.3 442.848 237C442.548 237 442.748 235.7 443.048 235.7H453.148C453.448 235.7 453.648 237 453.348 237C451.848 237.2 450.448 237.7 450.448 240.2V255.9C450.448 258.4 451.848 258.9 453.348 259.1C453.648 259.1 453.448 260.4 453.148 260.4H443.048C442.848 260.4 442.648 259.1 442.848 259.1Z" fill="#EC252C"/>
<path d="M458.048 248.2C458.048 241.1 463.148 235.1 470.848 235.1C478.248 235.1 483.648 240.5 483.648 247.8C483.648 255 478.548 260.9 470.748 260.9C463.448 261 458.048 255.6 458.048 248.2ZM479.048 249.9C479.048 242.9 474.348 237.7 469.448 237.7C466.448 237.7 462.748 239.7 462.748 246.1C462.748 253.2 467.448 258.4 472.348 258.4C475.248 258.4 479.048 256.3 479.048 249.9Z" fill="#EC252C"/>
<path d="M174.148 280.5C172.848 280.7 171.548 281.7 169.948 284.2L164.348 292.9V299.5C164.348 302 165.748 302.4 167.948 302.7C168.148 302.7 168.048 304 167.748 304H156.348C156.048 304 155.848 302.7 156.148 302.7C158.548 302.4 159.748 301.9 159.748 299.5V293L153.848 284.2C152.248 281.8 151.248 280.7 149.748 280.5C149.248 280.4 149.348 279.2 149.848 279.2H159.648C160.148 279.2 160.148 280.4 159.748 280.5C158.148 280.7 157.648 281.9 159.148 284.2L163.448 290.6L167.548 284.2C168.948 282 168.048 280.8 166.248 280.5C165.748 280.4 165.848 279.2 166.348 279.2H174.048C174.448 279.3 174.548 280.5 174.148 280.5Z" fill="#EC252C"/>
<path d="M217.649 304H207.948C207.748 304 207.549 302.7 207.749 302.7C209.349 302.4 210.349 301.6 210.249 299.5L209.549 288.4L204.249 299.3C203.449 301 202.849 302.5 202.749 303C202.649 303.4 201.849 303.6 201.249 303.6C200.649 303.6 200.249 303.4 200.049 303L192.049 288L191.549 299.5C191.449 302.1 193.049 302.6 194.049 302.7C194.349 302.7 194.148 304 193.948 304H186.448C186.148 304 185.949 302.7 186.249 302.7C187.749 302.5 189.049 302 189.149 299.5L190.349 279.4C190.349 278.8 191.849 278.7 192.249 279.4L202.448 298.3L211.849 279.4C212.249 278.7 213.749 278.8 213.849 279.4L215.049 299.5C215.149 302 216.448 302.5 217.948 302.7C218.048 302.7 217.849 304 217.649 304Z" fill="#EC252C"/>
<path d="M222.049 302.7C223.849 302.5 224.949 301.7 224.949 299.5V283.8C224.949 281.6 223.849 280.9 222.049 280.6C221.749 280.6 221.949 279.3 222.249 279.3H232.349C232.649 279.3 232.849 280.6 232.549 280.6C231.049 280.8 229.649 281.3 229.649 283.8V299.5C229.649 302 231.049 302.5 232.549 302.7C232.849 302.7 232.649 304 232.349 304H222.249C221.949 304 221.749 302.7 222.049 302.7Z" fill="#EC252C"/>
<path d="M244.349 294.5V299.4C244.349 301.9 246.049 302.3 248.249 302.6C248.449 302.6 248.349 303.9 248.049 303.9H236.948C236.648 303.9 236.449 302.6 236.749 302.6C238.549 302.4 239.649 301.6 239.649 299.4V284C239.649 281.7 238.449 281 236.749 280.5C236.449 280.4 236.648 279.2 236.948 279.2C238.348 279.4 239.849 279.4 241.049 279.4C243.849 279.4 246.049 279.2 247.849 279.2C253.449 279.2 258.049 281.2 258.049 286.7C258.149 293 252.249 295.7 244.349 294.5ZM244.349 284V292.8C250.149 293.6 252.948 292 252.948 287.6C252.948 283.8 250.549 281.2 246.849 281.2C244.849 281.2 244.349 281.9 244.349 284Z" fill="#EC252C"/>
<path d="M286.749 280.5C285.449 280.7 284.149 281.7 282.549 284.2L276.949 292.9V299.5C276.949 302 278.349 302.4 280.549 302.7C280.749 302.7 280.648 304 280.348 304H268.949C268.649 304 268.449 302.7 268.749 302.7C271.149 302.4 272.348 301.9 272.348 299.5V293L266.449 284.2C264.849 281.8 263.848 280.7 262.348 280.5C261.848 280.4 261.949 279.2 262.449 279.2H272.249C272.749 279.2 272.748 280.4 272.348 280.5C270.748 280.7 270.249 281.9 271.749 284.2L276.049 290.6L280.149 284.2C281.549 282 280.648 280.8 278.848 280.5C278.348 280.4 278.449 279.2 278.949 279.2H286.649C286.949 279.3 287.149 280.5 286.749 280.5Z" fill="#EC252C"/>
<path d="M320.748 304H311.048C310.848 304 310.648 302.7 310.848 302.7C312.448 302.4 313.448 301.6 313.348 299.5L312.648 288.4L307.348 299.3C306.548 301 305.948 302.5 305.848 303C305.748 303.4 304.948 303.6 304.348 303.6C303.748 303.6 303.348 303.4 303.148 303L295.148 288L294.648 299.5C294.548 302.1 296.148 302.6 297.148 302.7C297.448 302.7 297.248 304 297.048 304H289.548C289.248 304 289.048 302.7 289.348 302.7C290.848 302.5 292.148 302 292.248 299.5L293.448 279.4C293.448 278.8 294.948 278.7 295.348 279.4L305.548 298.3L314.948 279.4C315.348 278.7 316.848 278.8 316.948 279.4L318.148 299.5C318.248 302 319.548 302.5 321.048 302.7C321.248 302.7 321.048 304 320.748 304Z" fill="#EC252C"/>
<path d="M324.649 302.6C326.649 302.1 328.249 301.8 328.249 299.1V283.6C328.249 281.4 326.849 280.8 325.349 280.4C325.049 280.3 325.249 279.1 325.549 279.1C328.049 279.4 333.049 279.3 334.849 279.3C338.049 279.3 340.349 279.2 343.349 279.1C344.149 279.1 344.249 279.7 344.049 280.5L343.249 283.9C343.149 284.4 342.249 284.4 342.149 283.9C341.549 282.1 340.549 281.3 336.249 281.3C333.949 281.3 333.149 281.9 333.149 283.7V289.4C333.149 290.3 333.649 290.5 334.349 290.5H335.149C337.849 290.5 340.349 290.1 341.749 289C342.149 288.7 342.849 288.8 342.549 289.5L340.549 293.9C340.249 294.6 339.749 294.5 339.349 294C338.549 292.8 336.749 292.4 334.949 292.4H334.349C333.649 292.4 333.149 292.6 333.149 293.5V299.2C333.149 301.2 333.849 302 336.749 302C341.749 302 344.149 299.5 344.949 298.2C345.149 297.8 346.249 298.1 346.249 298.7C346.249 300.4 344.649 304.1 342.449 304.1C340.249 304 338.549 303.9 335.649 303.9C332.449 303.9 328.349 303.8 325.149 304.1C324.549 304.1 324.349 302.7 324.649 302.6Z" fill="#EC252C"/>
<path d="M350.749 301.7L351.149 300.3C352.249 296.4 353.449 302 359.249 302C362.149 302 363.349 300.6 363.349 298.7C363.349 297.2 362.449 296.5 359.749 294.9L356.749 292.9C352.749 290.3 351.049 288.9 351.049 286.1C351.049 281.6 355.449 278.7 359.749 278.7C362.349 278.7 365.849 279.9 365.449 281.1L364.949 282.5C363.749 286.2 362.949 281.3 358.149 281.3C355.749 281.3 354.549 282.5 354.549 284.3C354.549 285.9 355.549 286.8 357.849 288.3L361.249 290.5C365.049 292.9 366.649 294.5 366.649 297.1C366.649 301.6 362.349 304.7 357.549 304.7C354.849 304.5 350.349 303.3 350.749 301.7Z" fill="#EC252C"/>
</svg>
