<svg width="477" height="285" viewBox="0 0 477 285" fill="none" xmlns="http://www.w3.org/2000/svg">
<path fill-rule="evenodd" clip-rule="evenodd" d="M39.1574 0.0042554L438.039 0.67107C438.528 0.672122 439.014 0.685269 439.498 0.7042C439.969 0.686846 440.441 0.675275 440.916 0.675801C460.727 0.708931 476.761 16.9722 476.727 37.0018C476.726 37.4819 476.714 37.9589 476.694 38.4348C476.712 38.9244 476.724 39.4161 476.722 39.9104L476.383 245.886C476.382 246.38 476.369 246.871 476.35 247.361C476.368 247.836 476.379 248.314 476.378 248.794C476.346 268.823 460.258 285.033 440.447 285C439.972 284.999 439.5 284.986 439.029 284.967C438.545 284.984 438.059 284.996 437.57 284.995L38.6885 284.328C38.1998 284.327 37.7137 284.314 37.2296 284.295C36.7592 284.313 36.2872 284.324 35.8126 284.323C16.0008 284.29 -0.0328438 268.026 5.05237e-05 247.998C0.00109479 247.518 0.0136262 247.04 0.0329451 246.565C0.0157147 246.075 0.00422898 245.583 0.00475112 245.09L0.344137 39.1142C0.345181 38.6199 0.358235 38.1287 0.377032 37.6386C0.359801 37.1632 0.348312 36.6857 0.348835 36.2056C0.381729 16.1765 16.4686 -0.0330795 36.2804 5.06948e-05C36.7556 0.00110245 37.227 0.0137237 37.6975 0.0331812C38.182 0.0158272 38.6676 0.00373003 39.1563 0.00478179L39.1574 0.0042554Z" fill="#0A1388"/>
<path d="M126.246 221.023L126.186 262.889L113.248 262.865L113.317 221.004L126.245 221.023H126.246ZM183.441 233.136L183.395 262.978L170.31 262.954L170.379 221.098L187.434 221.126C194.919 221.14 200.763 222.762 204.996 226.006C210.017 229.878 212.518 235.123 212.509 241.752C212.495 248.085 210.344 253.246 206.033 257.249C201.74 261.252 196.199 263.245 189.424 263.231C188.913 263.226 188.195 263.207 187.264 263.174L187.283 250.808H187.637C195.265 250.827 199.083 247.794 199.097 241.723C199.11 236.023 195.357 233.159 187.868 233.145L183.442 233.136H183.441ZM89.934 16.4098C109.522 16.4423 125.376 32.6337 125.343 52.566C125.311 72.5026 109.407 88.6378 89.8185 88.6047C70.2301 88.5721 54.3766 72.3851 54.4091 52.4437C54.4369 32.5119 70.3455 16.3766 89.934 16.4092V16.4098ZM72.0406 202.886L72.2248 90.691C77.563 93.2457 83.5184 94.6852 89.8054 94.699C105.115 94.7225 118.495 86.2984 125.694 73.7498L125.57 148.828C178.725 166.679 216.35 188.354 239.481 203.168L72.0406 202.886ZM130.982 143.568C192.396 164.195 227.39 188.837 249.305 203.182C267.862 133.696 320.051 66.8361 367.564 33.5299C295.552 53.0355 251.848 114.027 219.833 152.55L130.982 143.568H130.982ZM321.667 95.0136L312.561 94.9997C326.756 76.6618 342.227 60.3764 357.698 47.1762C360.019 47.2323 361.848 47.2745 362 47.2889L362.046 47.2937C362.65 47.3498 363.257 47.4155 363.866 47.486L363.94 47.4951C364.538 47.5656 365.133 47.6499 365.722 47.7343L365.823 47.7482C366.413 47.8326 366.998 47.917 367.587 48.0201L367.684 48.034C368.269 48.1323 368.853 48.2402 369.434 48.348L369.526 48.3715C370.107 48.4794 370.696 48.6012 371.272 48.7278L371.34 48.7417C371.93 48.8731 372.519 49.0088 373.104 49.1498L373.118 49.1546C382.099 51.3391 390.473 55.0844 397.934 60.0816L398.017 60.1382C398.473 60.4427 398.929 60.7525 399.38 61.0708L399.523 61.1691C399.951 61.4693 400.375 61.7785 400.794 62.0926L401.01 62.2475C401.416 62.5428 401.812 62.8521 402.213 63.1571L402.466 63.3542C402.853 63.6495 403.231 63.954 403.609 64.2638L403.904 64.4982C404.267 64.7984 404.627 65.0986 404.991 65.4079L405.309 65.6749C405.659 65.9746 406.009 66.2795 406.354 66.5888L406.677 66.8745C407.017 67.179 407.358 67.4936 407.69 67.8029L408.026 68.1126C408.349 68.4219 408.676 68.7269 408.994 69.0404L409.348 69.3876C409.662 69.6968 409.975 70.0109 410.283 70.3255L410.633 70.6866C410.938 71.0006 411.237 71.3147 411.536 71.6288C411.655 71.7553 411.771 71.8819 411.886 72.0133C412.181 72.3274 412.475 72.6505 412.765 72.9742C412.876 73.1008 412.996 73.2322 413.106 73.3588C413.391 73.6825 413.682 74.0104 413.963 74.3432C414.074 74.4698 414.184 74.6102 414.295 74.7368C414.58 75.0744 414.856 75.4071 415.129 75.7495C415.235 75.8713 415.341 76.0027 415.437 76.1293C415.718 76.4716 415.994 76.8231 416.266 77.1697C416.363 77.2963 416.455 77.4229 416.547 77.5447C416.828 77.9057 417.1 78.2668 417.367 78.6231C417.45 78.7358 417.533 78.8437 417.606 78.951C417.887 79.3399 418.168 79.7244 418.444 80.1138L418.559 80.2826C419.826 82.0922 421.019 83.9627 422.133 85.8796C422.207 86.0014 422.276 86.1141 422.345 86.2311C422.539 86.5687 422.723 86.9153 422.917 87.2529C423.023 87.4542 423.138 87.6513 423.249 87.8575C423.414 88.1619 423.576 88.4717 423.737 88.781C423.866 89.0155 423.994 89.259 424.115 89.5031C424.266 89.7985 424.414 90.0987 424.561 90.3983C424.69 90.6515 424.819 90.9046 424.943 91.1669C425.081 91.4575 425.224 91.7576 425.363 92.0573C425.487 92.3201 425.611 92.5871 425.726 92.8542C425.864 93.1399 425.989 93.4353 426.113 93.7259C426.242 94.0074 426.362 94.2792 426.481 94.5559C426.606 94.8561 426.725 95.1557 426.845 95.4511C426.965 95.7229 427.075 96.0039 427.186 96.2758C427.31 96.5802 427.421 96.8852 427.531 97.1896C427.642 97.4663 427.748 97.7473 427.854 98.0239C427.969 98.3284 428.075 98.6286 428.176 98.9287C428.282 99.2193 428.383 99.5099 428.48 99.7962C428.586 100.096 428.687 100.401 428.784 100.701C428.881 101.001 428.978 101.292 429.07 101.592C429.166 101.892 429.259 102.192 429.35 102.497C429.438 102.797 429.535 103.096 429.618 103.397C429.7 103.697 429.788 103.997 429.871 104.301C429.959 104.611 430.037 104.916 430.12 105.229C430.198 105.529 430.276 105.83 430.35 106.134C430.433 106.443 430.507 106.762 430.581 107.071C430.649 107.376 430.719 107.676 430.788 107.976C430.862 108.295 430.926 108.613 430.99 108.937C431.055 109.232 431.119 109.537 431.179 109.842C431.248 110.17 431.308 110.494 431.368 110.821C431.423 111.122 431.479 111.421 431.529 111.721C431.584 112.054 431.64 112.392 431.695 112.729C431.741 113.02 431.788 113.315 431.829 113.611C431.884 113.962 431.93 114.314 431.977 114.666C432.018 114.951 432.055 115.228 432.092 115.519C432.138 115.88 432.175 116.236 432.212 116.601C432.244 116.878 432.281 117.164 432.304 117.45C432.341 117.82 432.373 118.191 432.405 118.566C432.424 118.842 432.451 119.109 432.47 119.386C432.498 119.766 432.521 120.15 432.544 120.53C432.557 120.802 432.576 121.073 432.585 121.35C432.608 121.767 432.622 122.194 432.636 122.616C432.645 122.846 432.654 123.075 432.659 123.305C432.672 123.961 432.682 124.622 432.682 125.288C432.682 125.954 432.672 126.614 432.654 127.271L432.649 127.365C432.636 127.993 432.608 128.621 432.575 129.244L432.566 129.423C432.534 130.023 432.492 130.613 432.447 131.204L432.433 131.439C432.387 132.015 432.336 132.592 432.277 133.169L432.245 133.417C432.19 133.984 432.13 134.542 432.056 135.11L432.019 135.386C431.945 135.935 431.867 136.488 431.784 137.041L431.742 137.327C431.655 137.875 431.563 138.419 431.466 138.963L431.416 139.235C431.324 139.773 431.218 140.308 431.112 140.847L431.043 141.156C430.932 141.69 430.812 142.23 430.698 142.764L430.638 143.031C430.509 143.565 430.375 144.1 430.242 144.63L430.14 145.023C430.011 145.52 429.878 146.013 429.735 146.5L429.606 146.964C429.468 147.438 429.325 147.916 429.182 148.389C429.132 148.53 429.09 148.67 429.049 148.82C428.901 149.265 428.758 149.711 428.606 150.166C428.551 150.325 428.496 150.494 428.436 150.658C428.293 151.085 428.137 151.507 427.985 151.928L427.791 152.463C427.644 152.856 427.492 153.255 427.335 153.648L427.096 154.258C426.944 154.642 426.787 155.012 426.635 155.387C426.547 155.585 426.465 155.791 426.377 155.992C426.221 156.353 426.064 156.718 425.903 157.08C425.797 157.314 425.691 157.553 425.58 157.782C425.438 158.106 425.286 158.429 425.134 158.748C424.991 159.057 424.839 159.362 424.691 159.662C424.572 159.906 424.447 160.15 424.323 160.393C424.157 160.731 423.982 161.059 423.812 161.391C423.701 161.607 423.586 161.823 423.475 162.038C423.286 162.385 423.093 162.732 422.904 163.079L422.596 163.627C422.389 163.997 422.172 164.363 421.96 164.733L421.712 165.155C421.472 165.554 421.223 165.957 420.979 166.351L420.786 166.665C420.528 167.077 420.27 167.49 420.008 167.893L419.805 168.193C417.723 171.348 415.416 174.352 412.914 177.17L412.91 177.175C412.513 177.615 412.113 178.056 411.712 178.492L411.707 178.497C410.938 179.242 408.414 180.1 409.322 180.71L409.469 180.808C397.388 192.757 381.443 200.782 363.682 202.836C357.879 202.92 351.583 202.971 344.734 202.981C342.754 202.99 339.949 202.911 336.338 202.789L282.468 202.831C287.055 187.234 293.72 170.27 302.264 155.18L336.416 155.199L354.586 155.231H354.705C371.286 155.26 384.745 141.815 384.772 125.202C384.8 108.589 371.383 95.0975 354.802 95.0697H354.683L321.669 95.0136H321.667ZM271.712 46.8007L237.053 46.7446L220.007 46.5614L219.934 88.0103L219.915 102.626L219.86 135.487C219.86 136.068 219.864 139.523 219.873 141.881C245.196 110.797 277.727 70.4879 324.209 46.9038L321.832 46.8851L276.755 46.8055L271.712 46.8007H271.712ZM349.072 222.425L362.009 222.448L361.963 246.712C361.963 248.601 362.29 249.867 362.94 250.499C363.58 251.123 364.865 251.442 366.777 251.446H367.449L367.431 263.292H363.985C359.264 263.282 355.589 261.989 352.959 259.401C350.334 256.809 349.026 253.227 349.03 248.629L349.072 222.424V222.425ZM329.28 242.736L329.262 253.509L325.531 253.5L325.513 263.222L312.589 263.203L312.626 237.233C312.635 232.208 314.095 228.298 317.029 225.523C319.949 222.743 324.057 221.36 329.345 221.37C334.448 221.374 338.221 222.649 340.648 225.176C343.094 227.698 344.305 231.598 344.296 236.867L344.254 263.254L331.326 263.235L331.363 237.65C331.367 236.056 331.16 234.945 330.764 234.331C330.359 233.708 329.644 233.398 328.599 233.398C326.573 233.394 325.564 234.814 325.555 237.641L325.55 242.727L329.281 242.736L329.28 242.736ZM294.659 242.821L307.269 243.167C306.426 249.632 304.151 254.624 300.462 258.145C296.777 261.665 291.964 263.423 286.037 263.409C280.003 263.399 274.96 261.384 270.906 257.376C266.858 253.354 264.831 248.39 264.845 242.451C264.85 236.474 266.936 231.454 271.081 227.38C275.226 223.311 280.33 221.29 286.4 221.295C292.369 221.304 297.339 223.311 301.332 227.314C304.091 230.085 306.044 233.943 307.186 238.874L294.281 239.704C292.849 235.316 290.112 233.113 286.087 233.109C283.512 233.104 281.403 233.985 279.727 235.748C278.055 237.497 277.216 239.751 277.207 242.475C277.202 245.09 278.023 247.266 279.653 248.99C281.293 250.702 283.365 251.559 285.876 251.564C288.427 251.569 290.463 250.824 291.969 249.305C293.493 247.81 294.382 245.644 294.659 242.822V242.821ZM238.689 221.22C244.764 221.225 249.978 223.292 254.321 227.398C258.655 231.519 260.829 236.441 260.819 242.164C260.806 247.986 258.613 252.927 254.224 256.996C249.839 261.056 244.505 263.081 238.246 263.072C232.01 263.058 226.704 261.004 222.309 256.912C217.916 252.81 215.723 247.869 215.732 242.09C215.742 236.249 217.97 231.308 222.406 227.253C226.85 223.217 232.267 221.206 238.687 221.22H238.689ZM238.293 232.958C235.663 232.953 233.447 233.844 231.591 235.639C229.744 237.42 228.823 239.581 228.814 242.113C228.809 244.64 229.73 246.81 231.582 248.591C233.438 250.391 235.658 251.291 238.269 251.301C240.909 251.301 243.133 250.414 244.98 248.638C246.813 246.857 247.734 244.691 247.734 242.141C247.739 239.591 246.827 237.425 244.994 235.639C243.17 233.848 240.931 232.963 238.292 232.958H238.293ZM132.534 262.898L132.576 236.384L132.599 221.037L148.88 221.065C153.795 221.074 157.548 222.433 160.137 225.157C162.735 227.867 164.034 231.771 164.029 236.857L163.988 262.949L151.055 262.93L151.096 236.834C151.101 234.35 150.161 233.098 148.264 233.093C146.426 233.088 145.51 234.335 145.505 236.824L145.463 262.916L140.673 262.907L132.535 262.897L132.534 262.898Z" fill="white"/>
</svg>
