<svg width="891" height="125" viewBox="0 0 891 125" fill="none" xmlns="http://www.w3.org/2000/svg">
<path d="M69.1624 84.8137C64.2978 76.142 65.3553 65.1437 72.758 57.7409C80.1608 50.3382 91.3706 49.2807 99.8308 54.1453L120.558 33.6293C100.465 17.5548 71.066 18.8239 52.4535 37.4364C33.8409 56.0489 32.5719 85.4482 48.4349 105.541L69.1624 84.8137Z" fill="#4B7CBF"/>
<path d="M150.592 33.6293L171.108 54.3569C179.78 49.4923 190.778 50.5498 198.181 57.9525C205.584 65.3552 206.641 76.565 201.777 85.0253L222.293 105.753C238.367 85.6598 237.098 56.2604 218.486 37.6479C199.873 19.0354 170.685 17.7664 150.592 33.6293Z" fill="#1F417F"/>
<path d="M0.211506 22.8428V52.0306C9.72927 54.5687 16.9205 63.4519 16.709 73.8157C16.4975 84.1795 9.72927 92.8512 0 95.3893V124.577C25.5922 121.616 45.4738 100.042 45.4738 73.8157C45.4738 47.589 25.5922 25.5924 0.211506 22.8428Z" fill="#4B7CBF"/>
<path d="M270.939 95.6007C261.421 93.0627 254.23 84.1794 254.442 73.8156C254.653 63.4518 261.421 54.7801 271.151 52.242V23.0542C245.558 26.0153 225.677 47.5889 225.677 73.8156C225.677 100.042 245.347 121.827 270.939 124.789V95.6007Z" fill="#1F417F"/>
<path d="M41.0321 32.1489C49.9098 32.1489 57.1065 24.9521 57.1065 16.0744C57.1065 7.19678 49.9098 0 41.0321 0C32.1544 0 24.9576 7.19678 24.9576 16.0744C24.9576 24.9521 32.1544 32.1489 41.0321 32.1489Z" fill="#4B7CBF"/>
<path d="M128.596 41.8779L107.868 62.394C112.733 71.0658 111.675 82.0641 104.273 89.4668C96.8698 96.8695 85.66 97.927 77.1997 93.0624L56.4722 113.578C76.5652 129.653 105.965 128.384 124.577 109.771C143.19 91.1588 144.67 61.971 128.596 41.8779Z" fill="#FEC00F"/>
<path d="M193.528 93.2739C184.856 98.1385 173.858 97.081 166.455 89.6783C159.053 82.2756 157.995 71.0658 162.86 62.6055L142.344 41.8779C126.269 61.971 127.538 91.3703 146.151 109.983C164.763 128.595 194.163 129.864 214.256 114.001L193.528 93.2739Z" fill="#FEC00F"/>
<path d="M135.364 32.3603C144.242 32.3603 151.438 25.1635 151.438 16.2859C151.438 7.4082 144.242 0.211426 135.364 0.211426C126.486 0.211426 119.29 7.4082 119.29 16.2859C119.29 25.1635 126.486 32.3603 135.364 32.3603Z" fill="#FEC00F"/>
<path d="M229.696 32.5718C238.573 32.5718 245.77 25.375 245.77 16.4973C245.77 7.61963 238.573 0.422852 229.696 0.422852C220.818 0.422852 213.621 7.61963 213.621 16.4973C213.621 25.375 220.818 32.5718 229.696 32.5718Z" fill="#1F417F"/>
<path d="M289.763 61.1254V24.1118H302.665C305.626 24.1118 308.164 24.5348 310.491 25.5924C312.817 26.6499 314.509 27.9189 315.99 29.611C317.47 31.303 318.528 33.2066 319.374 35.5331C320.22 37.8597 320.432 40.1863 320.432 42.7243C320.432 45.4739 320.009 48.012 319.162 50.3386C318.316 52.6651 317.047 54.5687 315.567 56.2607C314.086 57.9528 312.183 59.2218 309.856 60.0678C307.741 60.9138 305.203 61.3369 302.454 61.3369L289.763 61.1254ZM315.778 42.7243C315.778 40.6093 315.567 38.7057 314.932 37.0137C314.298 35.3216 313.452 33.8411 312.394 32.5721C311.337 31.303 309.856 30.2455 308.164 29.611C306.472 28.9765 304.569 28.5534 302.665 28.5534H294.628V57.3182H302.665C304.78 57.3182 306.684 56.8952 308.376 56.2607C310.068 55.6262 311.337 54.5687 312.394 53.2996C313.452 52.0306 314.298 50.5501 314.932 48.6465C315.567 46.5314 315.778 44.6279 315.778 42.7243Z" fill="#636466"/>
<path d="M326.565 28.9763V23.2656H331.218V28.9763H326.565ZM326.354 61.1252V33.8409H331.007V61.1252H326.354Z" fill="#636466"/>
<path d="M352.792 38.071C350.466 38.071 348.562 38.7055 346.658 39.7631C344.966 40.8206 343.697 42.5126 342.851 44.4162V61.1252H338.198V33.8409H342.428V40.1861C343.274 38.2825 344.543 36.802 346.235 35.5329C347.716 34.4754 349.408 33.6294 351.1 33.6294C351.523 33.6294 351.735 33.6294 351.946 33.6294C352.158 33.6294 352.369 33.6294 352.581 33.6294L352.792 38.071Z" fill="#636466"/>
<path d="M368.655 61.7596C366.54 61.7596 364.636 61.3366 362.944 60.7021C361.252 59.856 359.772 59.01 358.503 57.741C357.234 56.472 356.388 54.9914 355.753 53.2994C355.119 51.6073 354.696 49.7038 354.696 47.8002C354.696 45.8967 355.119 43.9931 355.753 42.3011C356.388 40.609 357.445 39.1285 358.714 37.8594C359.983 36.5904 361.464 35.5329 363.156 34.8983C364.848 34.2638 366.751 33.8408 368.866 33.8408C370.982 33.8408 372.885 34.2638 374.366 34.8983C376.058 35.7444 377.538 36.5904 378.596 37.8594C379.653 39.1285 380.711 40.609 381.345 42.3011C381.98 43.9931 382.403 45.6852 382.403 47.5887C382.403 48.0117 382.403 48.2232 382.403 48.6462C382.403 48.8577 382.403 49.2808 382.403 49.2808H359.772C359.772 50.5498 360.195 51.8188 360.618 53.0879C361.041 54.1454 361.887 55.2029 362.733 56.0489C363.579 56.895 364.425 57.5295 365.482 57.9525C366.54 58.3755 367.597 58.587 368.866 58.587C369.712 58.587 370.559 58.3755 371.405 58.164C372.251 57.9525 372.885 57.741 373.731 57.318C374.366 56.895 375 56.472 375.635 55.8374C376.269 55.2029 376.481 54.5684 376.904 53.9339L380.711 54.9914C380.288 56.0489 379.653 56.895 378.807 57.741C377.961 58.587 377.115 59.2215 376.058 59.856C375 60.4906 373.943 60.9136 372.674 61.3366C371.405 61.5481 370.136 61.7596 368.655 61.7596ZM378.173 45.8967C378.173 44.6276 377.75 43.3586 377.115 42.3011C376.481 41.2435 375.846 40.186 375 39.5515C374.154 38.7055 373.308 38.2824 372.251 37.6479C371.193 37.2249 369.924 37.0134 368.866 37.0134C367.597 37.0134 366.54 37.2249 365.482 37.6479C364.425 38.0709 363.367 38.7055 362.733 39.5515C361.887 40.3975 361.252 41.2435 360.829 42.3011C360.406 43.3586 359.983 44.6276 359.983 45.8967H378.173Z" fill="#636466"/>
<path d="M385.787 47.5888C385.787 45.6852 386.21 43.7817 386.845 42.0896C387.479 40.3976 388.537 38.917 389.594 37.648C390.863 36.379 392.344 35.3214 394.036 34.6869C395.728 33.8409 397.631 33.6294 399.747 33.6294C402.496 33.6294 404.823 34.2639 406.726 35.5329C408.63 36.802 410.11 38.2825 411.168 40.3976L406.726 41.8781C406.092 40.6091 405.034 39.5516 403.765 38.917C402.496 38.2825 401.227 37.8595 399.535 37.8595C398.266 37.8595 396.997 38.071 395.939 38.7055C394.882 39.1285 393.824 39.9746 392.978 40.8206C392.132 41.6666 391.498 42.7241 391.075 43.9932C390.652 45.2622 390.44 46.5313 390.44 48.0118C390.44 49.4923 390.652 50.7614 391.075 52.0304C391.498 53.2994 392.132 54.357 392.978 55.203C393.824 56.049 394.67 56.895 395.939 57.3181C396.997 57.7411 398.266 58.1641 399.535 58.1641C400.381 58.1641 401.227 57.9526 401.862 57.7411C402.708 57.5296 403.342 57.3181 403.977 56.895C404.611 56.472 405.246 56.049 405.669 55.626C406.092 55.203 406.515 54.5685 406.726 53.934L411.168 55.203C410.745 56.2605 410.11 57.1066 409.476 57.9526C408.63 58.7986 407.784 59.4331 406.938 60.0676C405.88 60.7022 404.823 61.1252 403.554 61.5482C402.285 61.9712 401.016 61.9712 399.747 61.9712C397.631 61.9712 395.728 61.5482 394.036 60.9137C392.344 60.0676 390.863 59.2216 389.594 57.7411C388.325 56.472 387.479 54.9915 386.845 53.2994C385.999 51.3959 385.787 49.4923 385.787 47.5888Z" fill="#636466"/>
<path d="M414.34 47.5888C414.34 45.6852 414.763 43.7817 415.398 42.0896C416.032 40.3976 417.09 38.917 418.147 37.648C419.416 36.379 420.897 35.3214 422.589 34.6869C424.281 33.8409 426.185 33.6294 428.3 33.6294C431.049 33.6294 433.376 34.2639 435.279 35.5329C437.183 36.802 438.664 38.2825 439.721 40.3976L435.279 41.8781C434.645 40.6091 433.587 39.5516 432.318 38.917C431.049 38.2825 429.78 37.8595 428.088 37.8595C426.819 37.8595 425.55 38.071 424.493 38.7055C423.435 39.1285 422.378 39.9746 421.532 40.8206C420.686 41.6666 420.051 42.7241 419.628 43.9932C419.205 45.2622 418.993 46.5313 418.993 48.0118C418.993 49.4923 419.205 50.7614 419.628 52.0304C420.051 53.2994 420.686 54.357 421.532 55.203C422.378 56.049 423.224 56.895 424.493 57.3181C425.55 57.7411 426.819 58.1641 428.088 58.1641C428.934 58.1641 429.78 57.9526 430.415 57.7411C431.261 57.5296 431.895 57.3181 432.53 56.895C433.164 56.472 433.799 56.049 434.222 55.626C434.645 55.203 435.068 54.5685 435.279 53.934L439.721 55.203C439.298 56.2605 438.664 57.1066 438.029 57.9526C437.183 58.7986 436.337 59.4331 435.491 60.0676C434.433 60.7022 433.376 61.1252 432.107 61.5482C430.838 61.9712 429.569 61.9712 428.3 61.9712C426.185 61.9712 424.281 61.5482 422.589 60.9137C420.897 60.0676 419.416 59.2216 418.147 57.7411C416.878 56.472 416.032 54.9915 415.398 53.2994C414.552 51.3959 414.34 49.4923 414.34 47.5888Z" fill="#636466"/>
<path d="M445.009 28.9763V23.2656H449.662V28.9763H445.009ZM445.009 61.3367V34.0524H449.662V61.3367H445.009Z" fill="#636466"/>
<path d="M468.909 61.9712C466.794 61.9712 464.89 61.5482 463.41 60.9137C461.929 60.2792 460.237 59.2216 459.18 57.7411C457.911 56.4721 457.065 54.9915 456.43 53.2995C455.796 51.6074 455.373 49.7039 455.373 48.0118C455.373 46.1083 455.796 44.2047 456.43 42.5127C457.065 40.8206 458.122 39.3401 459.18 38.071C460.449 36.802 461.718 35.7445 463.41 34.8984C465.102 34.0524 467.005 33.8409 468.909 33.8409C471.024 33.8409 472.716 34.2639 474.408 34.8984C476.1 35.7445 477.581 36.5905 478.85 38.071C480.119 39.3401 480.965 40.8206 481.599 42.5127C482.234 44.2047 482.657 46.1083 482.657 48.0118C482.657 49.9154 482.234 51.6074 481.599 53.2995C480.965 54.9915 479.907 56.4721 478.85 57.7411C477.581 59.0101 476.1 60.0677 474.408 60.9137C472.716 61.5482 471.024 61.9712 468.909 61.9712ZM459.814 47.8003C459.814 49.2809 460.026 50.5499 460.449 51.8189C460.872 53.088 461.506 54.1455 462.352 54.9915C463.198 55.8375 464.044 56.6836 465.313 57.1066C466.371 57.5296 467.64 57.9526 468.909 57.9526C470.178 57.9526 471.235 57.7411 472.505 57.1066C473.562 56.6836 474.62 55.8375 475.466 54.9915C476.312 54.1455 476.946 53.088 477.369 51.8189C477.792 50.5499 478.004 49.2809 478.004 47.8003C478.004 46.3198 477.792 45.0507 477.369 43.7817C476.946 42.5127 476.312 41.4551 475.466 40.6091C474.62 39.7631 473.774 38.9171 472.505 38.4941C471.447 38.071 470.178 37.648 468.909 37.648C467.64 37.648 466.582 37.8595 465.313 38.4941C464.256 39.1286 463.198 39.7631 462.352 40.6091C461.506 41.4551 460.872 42.5127 460.449 43.7817C460.026 45.0507 459.814 46.5313 459.814 47.8003ZM469.755 29.6108L466.794 28.5533L469.755 23.2656H474.408L469.755 29.6108Z" fill="#636466"/>
<path d="M511.845 61.5479H507.192V46.3195C507.192 43.3584 506.769 41.2434 505.922 39.9743C505.076 38.7053 503.596 38.0708 501.904 38.0708C501.058 38.0708 500 38.2823 499.154 38.7053C498.308 39.1283 497.251 39.5513 496.405 40.1858C495.559 40.8204 494.924 41.4549 494.29 42.5124C493.655 43.3584 493.232 44.416 492.809 45.4735V61.9709H488.156V34.6867H492.386V40.6089C493.444 38.7053 494.924 37.2248 497.039 35.9557C499.154 34.8982 501.269 34.2637 503.596 34.2637C505.076 34.2637 506.557 34.4752 507.403 35.1097C508.461 35.7442 509.307 36.3787 509.941 37.4363C510.576 38.4938 510.999 39.7628 511.21 41.0319C511.422 42.5124 511.633 43.9929 511.633 45.4735L511.845 61.5479Z" fill="#636466"/>
<path d="M559.01 56.4721C555.838 60.0677 552.031 61.7598 547.8 61.7598C545.262 61.7598 543.147 61.1253 541.032 60.0677C538.917 59.0102 537.014 57.5297 535.533 55.8376C534.053 54.1456 532.784 52.0305 531.938 49.9155C531.091 47.5889 530.668 45.2623 530.668 42.9358C530.668 40.3977 531.091 38.0711 531.938 35.7446C532.784 33.418 534.053 31.5144 535.533 29.8224C537.014 28.1303 538.917 26.6498 541.032 25.8038C543.147 24.7463 545.474 24.3232 548.012 24.3232C551.608 24.3232 554.569 25.1693 556.895 26.6498C559.222 28.1303 560.914 30.0339 562.183 32.572L558.587 35.11C557.53 32.995 556.049 31.3029 554.146 30.2454C552.242 29.1879 550.339 28.7649 548.012 28.7649C546.108 28.7649 544.416 29.1879 542.936 30.0339C541.455 30.8799 540.186 31.9375 538.917 33.2065C537.86 34.4755 537.014 36.1676 536.379 37.8596C535.745 39.5517 535.533 41.4552 535.533 43.3588C535.533 45.2623 535.956 47.1659 536.591 49.0694C537.225 50.7615 538.071 52.4535 539.34 53.7226C540.398 54.9916 541.878 56.0491 543.359 56.8952C544.839 57.7412 546.531 57.9527 548.435 57.9527C552.454 57.9527 556.049 56.0491 559.433 52.0305V46.9544H551.396V43.3588H563.24V61.7598H559.222L559.01 56.4721Z" fill="#636466"/>
<path d="M581.43 62.1824C579.315 62.1824 577.411 61.7594 575.719 61.1249C574.027 60.2789 572.547 59.4329 571.278 58.1638C570.009 56.8948 569.163 55.4143 568.528 53.7222C567.893 52.0302 567.47 50.1266 567.47 48.2231C567.47 46.3195 567.893 44.416 568.528 42.7239C569.163 41.0319 570.22 39.5513 571.489 38.2823C572.758 37.0132 574.239 35.9557 575.931 35.3212C577.623 34.4752 579.526 34.2637 581.641 34.2637C583.756 34.2637 585.66 34.6867 587.141 35.3212C588.833 36.1672 590.313 37.0132 591.371 38.2823C592.428 39.5513 593.486 41.0319 594.12 42.7239C594.755 44.416 595.178 46.108 595.178 48.0116C595.178 48.4346 595.178 48.6461 595.178 49.0691C595.178 49.2806 595.178 49.7036 595.178 49.7036H572.547C572.547 50.9726 572.97 52.2417 573.393 53.5107C573.816 54.5682 574.662 55.6258 575.508 56.4718C576.354 57.3178 577.2 57.9523 578.257 58.3753C579.315 58.7984 580.372 59.0099 581.641 59.0099C582.487 59.0099 583.333 58.7984 584.179 58.5869C585.026 58.3753 585.66 58.1638 586.506 57.7408C587.141 57.3178 587.775 56.8948 588.41 56.2603C589.044 55.6258 589.256 54.9913 589.679 54.3567L593.697 55.4143C593.274 56.4718 592.64 57.3178 591.794 58.1638C590.948 59.0099 590.102 59.6444 589.044 60.2789C587.987 60.9134 586.929 61.3364 585.66 61.7594C583.968 61.9709 582.699 62.1824 581.43 62.1824ZM590.736 46.108C590.736 44.839 590.313 43.5699 589.679 42.5124C589.044 41.4549 588.41 40.3973 587.564 39.7628C586.717 38.9168 585.872 38.4938 584.814 37.8593C583.756 37.4363 582.487 37.2248 581.43 37.2248C580.161 37.2248 579.103 37.4363 578.046 37.8593C576.988 38.2823 575.931 38.9168 575.296 39.7628C574.45 40.6088 573.816 41.4549 573.393 42.5124C572.97 43.5699 572.547 44.839 572.547 46.108H590.736Z" fill="#636466"/>
<path d="M623.731 61.5479H619.078V46.3195C619.078 43.3584 618.655 41.2434 617.809 39.9743C616.963 38.7053 615.482 38.0708 613.79 38.0708C612.944 38.0708 611.887 38.2823 611.041 38.7053C610.195 39.1283 609.137 39.5513 608.291 40.1858C607.445 40.8204 606.811 41.4549 606.176 42.5124C605.542 43.3584 605.119 44.416 604.696 45.4735V61.9709H600.042V34.6867H604.273V40.6089C605.33 38.7053 606.811 37.2248 608.926 35.9557C611.041 34.8982 613.156 34.2637 615.482 34.2637C616.963 34.2637 618.443 34.4752 619.289 35.1097C620.347 35.7442 621.193 36.3787 621.828 37.4363C622.462 38.4938 622.885 39.7628 623.097 41.0319C623.308 42.5124 623.52 43.9929 623.52 45.4735L623.731 61.5479Z" fill="#636466"/>
<path d="M642.978 62.1824C640.863 62.1824 638.96 61.7594 637.268 61.1249C635.575 60.2789 634.095 59.4329 632.826 58.1638C631.557 56.8948 630.711 55.4143 630.076 53.7222C629.442 52.0302 629.019 50.1266 629.019 48.2231C629.019 46.3195 629.442 44.416 630.076 42.7239C630.711 41.0319 631.768 39.5513 633.037 38.2823C634.306 37.0132 635.787 35.9557 637.479 35.3212C639.171 34.4752 641.075 34.2637 643.19 34.2637C645.305 34.2637 647.208 34.6867 648.689 35.3212C650.381 36.1672 651.861 37.0132 652.919 38.2823C654.188 39.5513 655.034 41.0319 655.669 42.7239C656.303 44.416 656.726 46.108 656.726 48.0116C656.726 48.4346 656.726 48.6461 656.726 49.0691C656.726 49.2806 656.726 49.7036 656.726 49.7036H634.095C634.095 50.9726 634.518 52.2417 634.941 53.5107C635.364 54.5682 636.21 55.6258 637.056 56.4718C637.902 57.3178 638.748 57.9523 639.806 58.3753C640.863 58.7984 641.921 59.0099 643.19 59.0099C644.036 59.0099 644.882 58.7984 645.728 58.5869C646.574 58.3753 647.208 58.1638 648.054 57.7408C648.689 57.3178 649.323 56.8948 649.958 56.2603C650.592 55.6258 650.804 54.9913 651.227 54.3567L655.246 55.4143C654.823 56.4718 654.188 57.3178 653.342 58.1638C652.496 59.0099 651.65 59.6444 650.592 60.2789C649.535 60.9134 648.477 61.3364 647.208 61.7594C645.939 62.1825 644.247 62.1824 642.978 62.1824ZM652.284 46.3195C652.284 45.0505 651.861 43.7814 651.227 42.7239C650.592 41.6664 649.958 40.6088 649.112 39.9743C648.266 39.1283 647.42 38.7053 646.362 38.0708C645.305 37.6478 644.036 37.4363 642.978 37.4363C641.709 37.4363 640.652 37.6478 639.594 38.0708C638.537 38.4938 637.479 39.1283 636.845 39.9743C635.999 40.8204 635.364 41.6664 634.941 42.7239C634.518 43.7814 634.095 45.0505 634.095 46.3195H652.284Z" fill="#636466"/>
<path d="M676.185 38.4939C673.858 38.4939 671.954 39.1284 670.051 40.1859C668.359 41.2434 667.09 42.9355 666.244 44.839V61.548H661.591V34.2638H665.821V40.6089C666.667 38.7054 667.936 37.2248 669.628 35.9558C671.108 34.8983 672.8 34.0522 674.492 34.0522C674.915 34.0522 675.127 34.0522 675.338 34.0522C675.55 34.0522 675.762 34.0522 675.973 34.0522L676.185 38.4939Z" fill="#636466"/>
<path d="M687.606 62.1825C686.337 62.1825 685.068 61.971 684.01 61.548C682.953 61.125 681.895 60.4905 681.049 59.6445C680.203 58.7984 679.569 57.9524 679.146 56.8949C678.723 55.8374 678.511 54.7798 678.511 53.5108C678.511 52.2418 678.723 51.1842 679.357 50.1267C679.992 49.0692 680.626 48.2231 681.684 47.5886C682.741 46.9541 684.01 46.3196 685.279 45.8966C686.76 45.4736 688.241 45.2621 689.933 45.2621C691.202 45.2621 692.682 45.4736 693.951 45.6851C695.22 45.8966 696.489 46.3196 697.547 46.7426V44.6275C697.547 42.301 696.912 40.6089 695.643 39.3399C694.374 38.0709 692.682 37.4363 690.356 37.4363C687.606 37.4363 684.645 38.4939 681.684 40.6089L680.203 37.6478C683.799 35.3213 687.183 34.0522 690.779 34.0522C694.374 34.0522 697.124 35.1098 699.239 37.0133C701.142 38.9169 702.2 41.6665 702.2 45.0506V56.0489C702.2 57.1064 702.623 57.7409 703.68 57.7409V61.7595C703.257 61.7595 702.834 61.971 702.411 61.971C702.2 61.971 701.777 61.971 701.354 61.971C700.508 61.971 699.662 61.7595 699.239 61.125C698.604 60.4905 698.393 59.856 698.181 59.2215V57.3179C696.912 59.0099 695.432 60.279 693.528 61.125C691.836 61.7595 689.721 62.1825 687.606 62.1825ZM688.875 58.7984C690.567 58.7984 692.048 58.5869 693.528 57.9524C695.009 57.3179 696.066 56.4719 696.701 55.6258C697.335 54.9913 697.758 54.3568 697.758 53.5108V49.4922C695.432 48.6462 693.317 48.2231 690.779 48.2231C688.452 48.2231 686.548 48.6462 685.279 49.7037C683.799 50.7612 683.164 52.0302 683.164 53.5108C683.164 54.3568 683.376 54.9913 683.587 55.6258C683.799 56.2604 684.222 56.8949 684.856 57.3179C685.491 57.7409 686.125 58.1639 686.76 58.3754C687.395 58.5869 688.029 58.7984 688.875 58.7984Z" fill="#636466"/>
<path d="M709.603 23.6885H714.256V54.7798C714.256 55.8374 714.467 56.6834 715.102 57.1064C715.736 57.7409 716.371 57.9524 717.428 57.9524C717.851 57.9524 718.274 57.9524 718.697 57.7409C719.12 57.5294 719.755 57.5294 720.178 57.3179L720.812 61.125C719.966 61.3365 719.12 61.7595 718.063 61.971C717.005 62.1825 716.159 62.1826 715.313 62.1826C713.621 62.1826 712.141 61.7595 711.083 60.702C710.026 59.6445 709.603 58.3755 709.603 56.4719V23.6885Z" fill="#636466"/>
<path d="M287.014 104.907C287.014 102.58 287.437 100.465 288.283 98.1388C289.129 96.0237 290.398 93.9086 291.878 92.2166C293.359 90.5246 295.262 89.044 297.589 87.9865C299.916 86.9289 302.454 86.2944 305.203 86.2944C308.587 86.2944 311.548 87.1405 314.086 88.621C316.625 90.1015 318.317 92.0051 319.586 94.5432L314.086 98.3503C313.663 97.2927 313.029 96.4467 312.394 95.8122C311.76 95.1777 310.914 94.5432 310.068 94.1202C309.222 93.6971 308.376 93.4856 307.53 93.2741C306.684 93.0626 305.838 93.0626 304.992 93.0626C303.088 93.0626 301.608 93.4856 300.339 94.1202C299.07 94.7547 297.8 95.8122 296.954 96.8697C296.108 97.9273 295.474 99.4078 294.839 100.888C294.416 102.369 294.205 103.849 294.205 105.33C294.205 107.022 294.416 108.503 295.051 109.983C295.685 111.464 296.32 112.733 297.166 114.002C298.223 115.059 299.281 116.117 300.55 116.751C301.819 117.386 303.3 117.809 304.992 117.809C305.838 117.809 306.684 117.809 307.53 117.597C308.376 117.386 309.222 116.963 310.068 116.54C310.914 116.117 311.548 115.482 312.394 114.848C313.029 114.213 313.663 113.367 314.086 112.31L320.009 115.694C319.374 117.174 318.528 118.232 317.471 119.289C316.413 120.347 315.144 121.193 313.663 122.039C312.183 122.673 310.914 123.308 309.222 123.731C307.741 124.154 306.049 124.366 304.569 124.366C302.031 124.366 299.493 123.731 297.377 122.673C295.262 121.616 293.359 120.135 291.667 118.232C290.186 116.54 288.917 114.425 288.071 112.098C287.225 109.772 287.014 107.234 287.014 104.907Z" fill="#636466"/>
<path d="M336.929 124.366C334.603 124.366 332.699 123.943 331.007 123.308C329.315 122.462 327.834 121.405 326.565 120.136C325.296 118.866 324.45 117.386 323.816 115.694C323.181 114.002 322.758 112.098 322.758 110.406C322.758 108.503 323.181 106.599 323.816 104.907C324.45 103.215 325.508 101.735 326.565 100.465C327.623 99.1964 329.315 98.1389 331.007 97.2929C332.699 96.4469 334.814 96.2354 336.929 96.2354C339.256 96.2354 341.159 96.6584 342.851 97.2929C344.543 98.1389 346.024 99.1964 347.293 100.465C348.562 101.735 349.408 103.215 350.043 104.907C350.677 106.599 351.1 108.503 351.1 110.406C351.1 112.31 350.677 114.002 350.043 115.694C349.408 117.386 348.351 118.866 347.293 120.136C346.024 121.405 344.543 122.462 342.851 123.308C341.159 123.943 339.044 124.366 336.929 124.366ZM329.738 110.195C329.738 111.464 329.949 112.521 330.372 113.579C330.796 114.636 331.219 115.482 331.853 116.117C332.488 116.751 333.334 117.386 334.18 117.809C335.026 118.232 336.083 118.443 336.929 118.443C337.775 118.443 338.833 118.232 339.679 117.809C340.525 117.386 341.371 116.751 342.005 116.117C342.64 115.482 343.063 114.425 343.486 113.579C343.909 112.521 344.12 111.464 344.12 110.195C344.12 108.926 343.909 107.868 343.486 106.811C343.063 105.753 342.64 104.907 342.005 104.273C341.371 103.638 340.525 103.004 339.679 102.581C338.833 102.158 337.775 101.946 336.929 101.946C336.083 101.946 335.026 102.158 334.18 102.581C333.334 103.004 332.488 103.638 331.853 104.273C331.219 104.907 330.796 105.965 330.372 106.811C329.949 107.868 329.738 108.926 329.738 110.195Z" fill="#636466"/>
<path d="M381.134 123.943H374.154V108.714C374.154 106.599 373.731 104.907 373.097 103.85C372.251 102.792 371.193 102.369 369.924 102.369C369.289 102.369 368.443 102.581 367.809 102.792C367.174 103.004 366.328 103.427 365.694 104.061C365.059 104.484 364.425 105.119 364.002 105.753C363.579 106.388 363.156 107.234 362.944 108.08V123.943H355.965V96.6584H362.31V101.735C363.367 100.042 364.848 98.5619 366.751 97.7159C368.655 96.6584 370.77 96.2354 373.308 96.2354C375 96.2354 376.481 96.6584 377.538 97.0814C378.596 97.7159 379.442 98.5619 380.076 99.6194C380.711 100.677 381.134 101.735 381.345 103.004C381.557 104.273 381.768 105.542 381.768 106.811L381.134 123.943Z" fill="#636466"/>
<path d="M403.342 122.462C402.496 122.885 401.227 123.308 399.958 123.731C398.689 124.154 397.208 124.366 395.728 124.366C394.67 124.366 393.824 124.154 392.978 123.942C392.132 123.731 391.286 123.308 390.652 122.673C390.017 122.039 389.594 121.404 389.171 120.558C388.748 119.712 388.537 118.655 388.537 117.386V101.734H384.941V96.4467H388.537V87.5635H395.516V96.4467H401.227V101.734H395.516V115.059C395.516 116.117 395.728 116.751 396.362 117.174C396.785 117.597 397.42 117.809 398.266 117.809C398.9 117.809 399.746 117.597 400.381 117.386C401.015 117.174 401.65 116.963 402.073 116.751L403.342 122.462Z" fill="#636466"/>
<path d="M423.435 102.58C421.32 102.58 419.416 103.003 417.724 103.849C416.032 104.696 414.763 105.753 414.129 107.445V123.943H407.149V96.6583H413.494V102.58C413.917 101.734 414.552 100.888 415.186 100.042C415.821 99.1964 416.455 98.5618 417.301 98.1388C418.147 97.5043 418.782 97.0813 419.628 96.8698C420.474 96.6583 421.108 96.4468 421.954 96.4468C422.377 96.4468 422.589 96.4468 422.8 96.4468C423.012 96.4468 423.223 96.4468 423.435 96.4468V102.58Z" fill="#636466"/>
<path d="M434.433 124.366C433.164 124.366 431.895 124.154 430.838 123.731C429.78 123.308 428.723 122.674 427.877 121.828C427.031 120.982 426.396 120.136 425.973 119.078C425.55 118.02 425.339 116.963 425.339 115.694C425.339 114.425 425.55 113.156 426.185 112.098C426.819 111.041 427.665 109.983 428.511 109.349C429.569 108.503 430.838 108.08 432.107 107.657C433.587 107.234 435.068 107.022 436.76 107.022C438.029 107.022 439.086 107.234 440.356 107.234C441.625 107.445 442.471 107.657 443.528 108.08V106.599C443.528 104.696 443.105 103.427 442.048 102.369C440.99 101.311 439.51 100.888 437.394 100.888C435.914 100.888 434.433 101.1 433.164 101.735C431.684 102.158 430.415 103.004 428.934 104.061L426.819 99.6194C430.415 97.2929 434.222 96.2354 438.24 96.2354C442.259 96.2354 445.22 97.2929 447.335 99.1964C449.45 101.1 450.508 103.85 450.508 107.657V116.117C450.508 116.751 450.719 117.386 450.931 117.597C451.142 117.809 451.565 118.02 452.2 118.02V123.943C450.931 124.154 450.085 124.366 449.027 124.366C447.758 124.366 446.701 124.154 446.066 123.52C445.432 122.885 445.009 122.251 444.797 121.193L444.586 119.713C443.317 121.405 441.836 122.462 440.144 123.308C438.24 123.943 436.337 124.366 434.433 124.366ZM436.337 119.29C437.606 119.29 438.663 119.078 439.721 118.655C440.779 118.232 441.625 117.597 442.259 116.963C443.105 116.328 443.317 115.694 443.317 115.059V111.887C442.471 111.675 441.625 111.252 440.567 111.041C439.51 110.829 438.663 110.829 437.817 110.829C435.914 110.829 434.433 111.252 433.376 112.098C432.318 112.944 431.684 114.002 431.684 115.271C431.684 116.54 432.107 117.386 432.953 118.232C433.799 118.866 435.068 119.29 436.337 119.29Z" fill="#636466"/>
<path d="M472.927 122.462C472.081 122.885 470.812 123.308 469.543 123.731C468.274 124.154 466.794 124.366 465.313 124.366C464.256 124.366 463.41 124.154 462.564 123.942C461.718 123.731 460.872 123.308 460.237 122.673C459.603 122.039 459.179 121.404 458.756 120.558C458.333 119.712 458.122 118.655 458.122 117.386V101.734H454.526V96.4467H458.122V87.5635H465.102V96.4467H470.812V101.734H465.102V115.059C465.102 116.117 465.313 116.751 465.948 117.174C466.371 117.597 467.005 117.809 467.851 117.809C468.486 117.809 469.332 117.597 469.966 117.386C470.601 117.174 471.235 116.963 471.658 116.751L472.927 122.462Z" fill="#636466"/>
<path d="M484.137 124.577C482.868 124.577 481.599 124.366 480.542 123.943C479.484 123.52 478.427 122.885 477.581 122.039C476.735 121.193 476.1 120.347 475.677 119.289C475.254 118.232 475.042 117.174 475.042 115.905C475.042 114.636 475.254 113.367 475.888 112.31C476.523 111.252 477.369 110.195 478.215 109.56C479.273 108.714 480.542 108.291 481.811 107.868C483.291 107.445 484.772 107.234 486.464 107.234C487.733 107.234 488.79 107.445 490.059 107.445C491.328 107.657 492.174 107.868 493.232 108.291V106.811C493.232 104.907 492.809 103.638 491.751 102.58C490.694 101.523 489.213 101.1 487.098 101.1C485.618 101.1 484.137 101.311 482.868 101.946C481.388 102.369 480.119 103.215 478.638 104.272L476.523 99.8309C480.119 97.5043 483.926 96.4468 487.944 96.4468C491.963 96.4468 494.924 97.5043 497.039 99.4079C499.154 101.311 500.212 104.061 500.212 107.868V116.328C500.212 116.963 500.423 117.597 500.635 117.809C500.846 118.02 501.269 118.232 501.904 118.232V124.154C500.635 124.366 499.789 124.577 498.731 124.577C497.462 124.577 496.405 124.366 495.77 123.731C495.136 123.097 494.713 122.462 494.501 121.404L494.29 119.924C493.02 121.616 491.54 122.674 489.848 123.52C487.944 124.154 486.041 124.577 484.137 124.577ZM486.041 119.501C487.31 119.501 488.367 119.289 489.425 118.866C490.482 118.443 491.328 117.809 491.963 117.174C492.809 116.54 493.02 115.905 493.02 115.271V112.098C492.174 111.887 491.328 111.464 490.271 111.252C489.213 111.041 488.367 111.041 487.521 111.041C485.618 111.041 484.137 111.464 483.08 112.31C482.022 113.156 481.388 114.213 481.388 115.482C481.388 116.751 481.811 117.597 482.657 118.443C483.503 119.289 484.772 119.501 486.041 119.501Z" fill="#636466"/>
<path d="M504.865 110.406C504.865 108.503 505.288 106.599 505.922 104.907C506.557 103.215 507.614 101.735 508.883 100.465C510.152 99.1964 511.633 98.1389 513.325 97.2929C515.017 96.4469 517.132 96.2354 519.247 96.2354C522.208 96.2354 524.746 96.8699 526.861 98.1389C528.976 99.4079 530.457 101.1 531.515 103.215L524.746 105.33C524.112 104.273 523.477 103.638 522.42 103.004C521.362 102.369 520.305 102.158 519.247 102.158C518.19 102.158 517.344 102.369 516.498 102.792C515.652 103.215 514.806 103.85 514.171 104.484C513.537 105.119 513.113 105.965 512.69 107.022C512.267 108.08 512.056 109.137 512.056 110.406C512.056 111.675 512.267 112.733 512.69 113.79C513.113 114.848 513.537 115.694 514.171 116.328C514.806 116.963 515.652 117.597 516.498 118.02C517.344 118.443 518.19 118.655 519.247 118.655C520.516 118.655 521.574 118.443 522.631 117.809C523.689 117.174 524.535 116.328 524.746 115.482L531.515 117.597C530.668 119.713 528.976 121.405 526.861 122.674C524.746 123.943 522.208 124.577 519.036 124.577C516.709 124.577 514.806 124.154 513.113 123.52C511.421 122.885 509.729 121.616 508.672 120.347C507.614 119.078 506.557 117.597 505.711 115.905C505.076 114.002 504.865 112.31 504.865 110.406Z" fill="#636466"/>
<path d="M535.956 92.8513V85.8716H542.936V92.8513H535.956ZM535.956 124.154V96.8699H542.936V124.154H535.956Z" fill="#636466"/>
<path d="M561.76 124.577C559.433 124.577 557.53 124.154 555.838 123.52C554.146 122.674 552.665 121.616 551.396 120.347C550.127 119.078 549.281 117.597 548.647 115.905C548.012 114.213 547.589 112.31 547.589 110.618C547.589 108.714 548.012 106.811 548.647 105.119C549.281 103.426 550.339 101.946 551.396 100.677C552.454 99.4079 554.146 98.3503 555.838 97.5043C557.53 96.6583 559.645 96.4468 561.76 96.4468C564.087 96.4468 565.99 96.8698 567.682 97.5043C569.374 98.3503 570.855 99.4079 572.124 100.677C573.393 101.946 574.239 103.426 574.873 105.119C575.508 106.811 575.931 108.714 575.931 110.618C575.931 112.521 575.508 114.213 574.873 115.905C574.239 117.597 573.181 119.078 572.124 120.347C570.855 121.616 569.374 122.674 567.682 123.52C565.99 124.154 564.087 124.577 561.76 124.577ZM554.78 110.406C554.78 111.675 554.992 112.733 555.415 113.79C555.838 114.848 556.261 115.694 556.895 116.328C557.53 116.963 558.376 117.597 559.222 118.02C560.068 118.443 561.126 118.655 561.972 118.655C563.029 118.655 563.875 118.443 564.721 118.02C565.567 117.597 566.413 116.963 567.048 116.328C567.682 115.694 568.105 114.636 568.528 113.79C568.951 112.733 569.163 111.675 569.163 110.406C569.163 109.137 568.951 108.08 568.528 107.022C568.105 105.965 567.682 105.119 567.048 104.484C566.413 103.849 565.567 103.215 564.721 102.792C563.875 102.369 562.818 102.157 561.972 102.157C561.126 102.157 560.068 102.369 559.222 102.792C558.376 103.215 557.53 103.849 556.895 104.484C556.261 105.119 555.838 106.176 555.415 107.022C554.992 108.291 554.78 109.349 554.78 110.406Z" fill="#636466"/>
<path d="M606.176 124.154H599.196V108.926C599.196 106.811 598.773 105.119 598.139 104.061C597.293 103.003 596.235 102.58 594.966 102.58C594.332 102.58 593.486 102.792 592.851 103.003C592.217 103.215 591.371 103.638 590.736 104.272C590.102 104.696 589.467 105.33 589.044 105.965C588.621 106.599 588.198 107.445 587.987 108.291V124.154H581.007V96.8698H587.352V101.946C588.41 100.254 589.89 98.7733 591.794 97.9273C593.697 96.8698 595.812 96.4468 598.35 96.4468C600.042 96.4468 601.523 96.8698 602.58 97.2928C603.638 97.9273 604.484 98.7733 605.118 99.8309C605.753 100.888 606.176 101.946 606.388 103.215C606.599 104.484 606.811 105.753 606.811 107.022L606.176 124.154Z" fill="#636466"/>
<path d="M625 124.788C622.885 124.788 620.77 124.365 619.078 123.731C617.386 122.885 615.694 122.039 614.636 120.77C613.367 119.501 612.521 118.02 611.675 116.328C611.041 114.636 610.618 112.733 610.618 111.041C610.618 109.137 611.041 107.233 611.675 105.541C612.31 103.849 613.367 102.369 614.636 101.1C615.905 99.8307 617.386 98.7732 619.289 97.9272C620.981 97.0811 623.097 96.8696 625.212 96.8696C627.538 96.8696 629.442 97.2926 631.134 97.9272C632.826 98.5617 634.306 99.6192 635.575 101.1C636.844 102.369 637.69 103.849 638.325 105.541C638.959 107.233 639.382 108.925 639.382 110.829C639.382 111.252 639.382 111.675 639.382 112.098C639.382 112.521 639.382 112.944 639.171 113.156H618.02C618.02 114.213 618.443 115.271 618.866 116.117C619.289 116.963 619.924 117.597 620.558 118.232C621.193 118.866 622.039 119.289 622.885 119.501C623.731 119.712 624.577 119.924 625.423 119.924C626.904 119.924 628.173 119.501 629.442 118.866C630.711 118.232 631.557 117.386 631.98 116.117L637.902 117.809C636.844 119.924 635.364 121.616 633.037 122.885C630.711 123.942 627.961 124.788 625 124.788ZM631.98 108.291C631.768 106.176 631.134 104.695 629.653 103.426C628.384 102.157 626.692 101.523 624.789 101.523C623.943 101.523 622.885 101.734 622.251 101.946C621.404 102.369 620.77 102.792 620.135 103.426C619.501 104.061 619.078 104.695 618.655 105.541C618.232 106.387 618.02 107.233 618.02 108.291H631.98Z" fill="#636466"/>
<path d="M653.765 124.789C651.438 124.789 649.323 124.366 646.997 123.731C644.882 123.097 642.978 122.039 641.286 120.558L643.824 116.117C645.516 117.386 647.208 118.232 648.689 118.866C650.169 119.501 651.861 119.712 653.342 119.712C654.822 119.712 655.88 119.501 656.726 118.866C657.572 118.443 657.995 117.597 657.995 116.54C657.995 115.482 657.572 114.848 656.515 114.425C655.668 114.002 653.976 113.367 651.861 112.944C650.169 112.521 648.477 111.887 647.42 111.464C646.151 111.041 645.093 110.406 644.459 109.983C643.613 109.349 643.19 108.714 642.767 108.08C642.344 107.234 642.344 106.388 642.344 105.33C642.344 103.849 642.555 102.792 643.19 101.523C643.824 100.465 644.459 99.4079 645.516 98.7733C646.574 97.9273 647.631 97.2928 648.9 97.0813C650.169 96.6583 651.65 96.4468 653.13 96.4468C655.245 96.4468 657.149 96.6583 658.841 97.2928C660.533 97.9273 662.225 98.7733 663.706 100.254L660.956 104.484C659.476 103.426 658.207 102.58 656.938 102.157C655.669 101.734 654.399 101.523 653.13 101.523C651.861 101.523 651.015 101.734 650.169 102.157C649.323 102.58 648.9 103.426 648.9 104.484C648.9 104.907 648.9 105.33 649.112 105.753C649.323 105.965 649.535 106.388 649.958 106.599C650.381 106.811 651.015 107.022 651.65 107.234C652.284 107.445 653.13 107.657 654.188 107.868C656.091 108.291 657.572 108.926 659.053 109.349C660.322 109.772 661.379 110.406 662.437 111.041C663.283 111.675 663.917 112.31 664.34 113.156C664.763 114.002 664.975 115.059 664.975 116.117C664.975 118.866 663.917 120.981 662.014 122.462C659.899 123.943 657.149 124.789 653.765 124.789Z" fill="#636466"/>
<path d="M682.53 124.154V87.1401H698.181C699.873 87.1401 701.354 87.5631 702.834 88.1977C704.315 88.8322 705.584 89.8897 706.641 90.9472C707.699 92.2163 708.545 93.4853 709.179 94.9659C709.814 96.4464 710.026 97.9269 710.026 99.4075C710.026 100.888 709.814 102.58 709.179 104.061C708.545 105.541 707.91 106.81 706.853 108.079C705.795 109.137 704.526 110.194 703.257 110.829C701.777 111.463 700.296 111.886 698.604 111.886H689.932V124.365L682.53 124.154ZM689.721 105.541H697.97C699.239 105.541 700.296 104.907 701.354 103.849C702.2 102.792 702.623 101.311 702.623 99.4075C702.623 98.5615 702.411 97.7154 702.2 96.8694C701.988 96.0234 701.565 95.3889 701.142 94.9659C700.719 94.5428 700.085 94.1198 699.45 93.6968C698.816 93.4853 698.181 93.2738 697.547 93.2738H689.509L689.721 105.541Z" fill="#636466"/>
<path d="M722.716 124.788C719.966 124.788 717.851 123.942 716.371 122.039C714.89 120.135 714.256 117.597 714.256 114.002V96.8696H721.235V112.521C721.235 116.751 722.716 118.866 725.677 118.866C726.946 118.866 728.426 118.443 729.696 117.597C730.965 116.751 732.022 115.482 732.868 113.79V96.8696H739.848V116.117C739.848 116.751 740.059 117.386 740.271 117.597C740.482 117.809 740.905 118.02 741.54 118.02V123.942C740.905 124.154 740.271 124.154 739.848 124.154C739.425 124.154 739.002 124.154 738.579 124.154C737.31 124.154 736.252 123.942 735.618 123.308C734.772 122.673 734.349 122.039 734.137 120.981L733.926 118.866C732.657 120.77 731.176 122.25 729.272 123.096C727.157 124.365 725.042 124.788 722.716 124.788ZM728.638 93.9086L724.196 92.6395L726.946 86.5059H733.503L728.638 93.9086Z" fill="#636466"/>
<path d="M762.056 124.789C759.941 124.789 758.037 124.366 756.557 123.308C754.865 122.462 753.596 120.981 752.75 119.501V124.154H746.616V86.083H753.596V101.523C754.653 99.8309 755.922 98.5619 757.403 97.7158C758.883 96.8698 760.787 96.2353 762.902 96.4468C764.594 96.4468 766.286 96.8698 767.767 97.5043C769.247 98.3503 770.516 99.1964 771.574 100.677C772.631 102.157 773.477 103.426 774.112 105.119C774.746 106.811 774.958 108.714 774.958 110.618C774.958 112.521 774.535 114.425 773.9 116.117C773.266 117.809 772.42 119.289 771.151 120.558C770.093 121.828 768.613 122.885 767.132 123.52C765.652 124.577 763.959 124.789 762.056 124.789ZM760.152 118.866C761.21 118.866 762.267 118.655 763.325 118.232C764.171 117.809 765.017 117.174 765.652 116.54C766.286 115.905 766.921 115.059 767.132 114.002C767.555 112.944 767.767 111.887 767.767 110.829C767.767 109.772 767.555 108.714 767.344 107.657C766.921 106.599 766.498 105.753 765.863 104.907C765.229 104.061 764.382 103.638 763.536 103.003C762.69 102.58 761.633 102.369 760.575 102.369C759.095 102.369 757.614 102.792 756.345 103.85C755.076 104.907 754.23 106.176 753.596 107.657V114.213C753.807 114.848 754.23 115.482 754.653 116.117C755.076 116.751 755.711 117.174 756.345 117.597C756.98 118.02 757.614 118.232 758.249 118.443C758.883 118.866 759.518 118.866 760.152 118.866Z" fill="#636466"/>
<path d="M779.611 86.2944H786.591V115.482C786.591 116.54 786.802 117.174 787.225 117.809C787.648 118.443 788.494 118.655 789.34 118.655C789.763 118.655 790.186 118.655 790.821 118.443C791.244 118.232 791.878 118.232 792.301 118.02L793.147 123.308C792.301 123.731 791.032 124.154 789.763 124.365C788.494 124.577 787.437 124.789 786.379 124.789C784.264 124.789 782.572 124.154 781.303 123.096C780.034 121.827 779.611 120.347 779.611 118.02V86.2944Z" fill="#636466"/>
<path d="M796.108 93.2741V86.2944H803.088V93.2741H796.108ZM796.108 124.366V97.0812H803.088V124.366H796.108Z" fill="#636466"/>
<path d="M807.741 110.829C807.741 108.926 808.164 107.022 808.799 105.33C809.433 103.638 810.491 102.157 811.76 100.888C813.029 99.6193 814.509 98.5618 816.201 97.7157C817.893 96.8697 820.009 96.6582 822.124 96.6582C825.085 96.6582 827.623 97.2927 829.738 98.5618C831.853 99.8308 833.333 101.523 834.391 103.638L827.623 105.753C826.988 104.695 826.354 104.061 825.296 103.426C824.239 102.792 823.181 102.58 822.124 102.58C821.066 102.58 820.22 102.792 819.374 103.215C818.528 103.638 817.682 104.272 817.047 104.907C816.413 105.541 815.99 106.387 815.567 107.445C815.144 108.503 814.932 109.56 814.932 110.829C814.932 112.098 815.144 113.156 815.567 114.213C815.99 115.271 816.413 116.117 817.047 116.751C817.682 117.386 818.528 118.02 819.374 118.443C820.22 118.866 821.066 119.078 822.124 119.078C823.393 119.078 824.45 118.866 825.508 118.232C826.565 117.597 827.411 116.751 827.623 115.905L834.391 118.02C833.545 120.135 831.853 121.827 829.738 123.096C827.623 124.365 825.085 125 821.912 125C819.586 125 817.682 124.577 815.99 123.942C814.298 123.096 812.606 122.039 811.548 120.77C810.491 119.501 809.433 118.02 808.587 116.328C808.164 114.425 807.741 112.733 807.741 110.829Z" fill="#636466"/>
<path d="M846.235 125C844.966 125 843.697 124.788 842.64 124.365C841.582 123.942 840.525 123.308 839.679 122.462C838.833 121.616 838.198 120.77 837.775 119.712C837.352 118.655 837.141 117.597 837.141 116.328C837.141 115.059 837.352 113.79 837.987 112.733C838.621 111.675 839.467 110.618 840.313 109.983C841.371 109.137 842.64 108.714 843.909 108.291C845.389 107.868 846.87 107.656 848.562 107.656C849.831 107.656 850.889 107.868 852.158 107.868C853.427 108.079 854.273 108.291 855.33 108.714V107.233C855.33 105.33 854.907 104.061 853.85 103.003C852.792 101.946 851.312 101.523 849.196 101.523C847.716 101.523 846.235 101.734 844.966 102.369C843.486 102.792 842.217 103.638 840.736 104.695L838.621 100.254C842.217 97.9272 846.024 96.8696 850.043 96.8696C854.061 96.8696 857.022 97.9272 859.137 99.8307C861.252 101.734 862.31 104.484 862.31 108.291V116.751C862.31 117.386 862.521 118.02 862.733 118.232C862.944 118.443 863.367 118.655 864.002 118.655V124.577C862.733 124.788 861.887 125 860.829 125C859.56 125 858.503 124.788 857.868 124.154C857.234 123.519 856.811 122.885 856.599 121.827L856.388 120.347C855.119 122.039 853.638 123.096 851.946 123.942C850.042 124.577 848.35 125 846.235 125ZM848.35 119.924C849.62 119.924 850.677 119.712 851.735 119.289C852.792 118.866 853.638 118.232 854.273 117.597C855.119 116.963 855.33 116.328 855.33 115.694V112.521C854.484 112.31 853.638 111.887 852.581 111.675C851.523 111.464 850.677 111.464 849.831 111.464C847.927 111.464 846.447 111.887 845.389 112.733C844.332 113.579 843.697 114.636 843.697 115.905C843.697 117.174 844.12 118.02 844.966 118.866C845.812 119.501 846.87 119.924 848.35 119.924Z" fill="#636466"/>
<path d="M879.019 125C876.692 125 874.577 124.577 872.251 123.942C870.136 123.308 868.232 122.25 866.54 120.77L869.29 116.328C870.982 117.597 872.674 118.443 874.154 119.078C875.635 119.712 877.327 119.924 878.807 119.924C880.288 119.924 881.345 119.712 882.191 119.078C883.037 118.655 883.461 117.809 883.461 116.751C883.461 115.694 883.037 115.059 881.98 114.636C881.134 114.213 879.442 113.579 877.327 113.156C875.635 112.733 873.943 112.098 872.885 111.675C871.616 111.252 870.559 110.618 869.924 110.195C869.078 109.56 868.655 108.926 868.232 108.291C867.809 107.445 867.809 106.599 867.809 105.541C867.809 104.061 868.021 103.003 868.655 101.734C869.29 100.677 869.924 99.6193 870.982 98.9848C872.039 98.1387 873.097 97.5042 874.366 97.2927C875.635 96.8697 877.115 96.6582 878.596 96.6582C880.711 96.6582 882.614 96.8697 884.307 97.5042C885.999 98.1387 887.691 98.9848 889.171 100.465L886.422 104.695C884.941 103.638 883.672 102.792 882.403 102.369C881.134 101.946 879.865 101.734 878.596 101.734C877.327 101.734 876.481 101.946 875.635 102.369C874.789 102.792 874.366 103.638 874.366 104.695C874.366 105.118 874.366 105.541 874.577 105.964C874.789 106.176 875 106.599 875.423 106.81C875.846 107.022 876.481 107.233 877.115 107.445C877.75 107.657 878.596 107.868 879.653 108.08C881.557 108.503 883.038 109.137 884.518 109.56C885.787 109.983 886.845 110.618 887.902 111.252C888.96 111.887 889.383 112.521 889.806 113.367C890.229 114.213 890.44 115.271 890.44 116.328C890.44 119.078 889.383 121.193 887.479 122.673C885.153 124.365 882.403 125 879.019 125Z" fill="#636466"/>
</svg>
